<svg id="Layer_1" data-name="Layer 1" xmlns="http://www.w3.org/2000/svg" viewBox="0 0 675 1476.27"><defs><style>.cls-1{fill:#1f1f1f;}.cls-2{fill:#fff;}.cls-3{fill:#333;}.cls-4{fill:#999;}</style></defs><path class="cls-1" d="M98.24,1257.11a3.85,3.85,0,0,0-3.9,3.66h7.83A3.6,3.6,0,0,0,98.24,1257.11Z" transform="translate(0 0.63)"/><path class="cls-1" d="M377.14,1315.31h-8.63v33.19h8.56c8.35,0,15.27-5.36,15.27-16.49S385.49,1315.31,377.14,1315.31Z" transform="translate(0 0.63)"/><path class="cls-1" d="M306.68,84.5c-9.53,0-19,6.81-19,20.5s9.45,20.5,19,20.5,19.05-6.81,19.05-20.5S316.29,84.5,306.68,84.5Z" transform="translate(0 0.63)"/><path class="cls-1" d="M443,1315.31h-8.62v33.19h8.55c8.35,0,15.28-5.36,15.28-16.49S451.34,1315.31,443,1315.31Z" transform="translate(0 0.63)"/><polygon class="cls-1" points="35.47 1447.23 42.74 1447.23 39.07 1437.76 35.47 1447.23"/><path class="cls-1" d="M122,1083.26a2.18,2.18,0,0,0,2.33,2.08c2.29,0,4.14-1.1,4.14-4.23v-.65l-4.38.65A2.15,2.15,0,0,0,122,1083.26Z" transform="translate(0 0.63)"/><polygon class="cls-1" points="255.99 952.98 248.66 972.67 263.32 972.67 255.99 952.98"/><path class="cls-1" d="M209.47,752.14h-5.21v9.17h5.21c3.17,0,5.09-1.75,5.09-4.54S212.64,752.14,209.47,752.14Z" transform="translate(0 0.63)"/><path class="cls-1" d="M125,901.1a2.17,2.17,0,0,0,2.32,2.08c2.29,0,4.14-1.1,4.14-4.23v-.65l-4.38.65A2.14,2.14,0,0,0,125,901.1Z" transform="translate(0 0.63)"/><path class="cls-1" d="M167.3,1075a3.85,3.85,0,0,0-3.9,3.66h7.83A3.6,3.6,0,0,0,167.3,1075Z" transform="translate(0 0.63)"/><path class="cls-1" d="M170.22,892.79a3.86,3.86,0,0,0-3.9,3.66h7.83A3.6,3.6,0,0,0,170.22,892.79Z" transform="translate(0 0.63)"/><path class="cls-1" d="M94.87,1322.43c0-4.48-3.26-7.4-8.28-7.4H77.83v14.74h8.76C91.61,1329.77,94.87,1326.85,94.87,1322.43Z" transform="translate(0 0.63)"/><path class="cls-1" d="M258.09,751.81c-5,0-9.88,3.54-9.88,10.67s4.92,10.67,9.88,10.67,9.92-3.54,9.92-10.67S263.09,751.81,258.09,751.81Z" transform="translate(0 0.63)"/><path class="cls-1" d="M185.43,1267.29c2.56,0,4.23-2,4.23-5.12s-1.64-5-4.23-5-4.26,1.94-4.26,5S183,1267.29,185.43,1267.29Z" transform="translate(0 0.63)"/><path class="cls-1" d="M146.29,1442.93c-2.38,0-4.46,1.79-4.46,5.09s2.08,5.13,4.46,5.13,4.47-1.79,4.47-5.13S148.68,1442.93,146.29,1442.93Z" transform="translate(0 0.63)"/><path class="cls-1" d="M131.75,1349.25c8.14,0,16.15-5.77,16.15-17.38s-8-17.38-16.15-17.38-16.09,5.77-16.09,17.38S123.67,1349.25,131.75,1349.25Z" transform="translate(0 0.63)"/><path class="cls-1" d="M50,1083.26a2.17,2.17,0,0,0,2.32,2.08c2.3,0,4.14-1.1,4.14-4.23v-.65l-4.37.65A2.15,2.15,0,0,0,50,1083.26Z" transform="translate(0 0.63)"/><path class="cls-1" d="M254.61,1257.11a3.84,3.84,0,0,0-3.9,3.66h7.83A3.6,3.6,0,0,0,254.61,1257.11Z" transform="translate(0 0.63)"/><path class="cls-1" d="M59.25,1442.93c-2.47,0-4.26,1.93-4.26,5s1.79,5.13,4.26,5.13,4.23-2,4.23-5.13S61.84,1442.93,59.25,1442.93Z" transform="translate(0 0.63)"/><path class="cls-1" d="M632.5,1.87H42.5a40,40,0,0,0-40,40V202.2h670V41.87A40,40,0,0,0,632.5,1.87ZM99.76,114.14H74.5V88.87h5V105.6L95.81,89.29l3.54,3.53L83,109.14H99.76Zm105.14-2.89H193.45v22.18h-9.61V76.65H204.9C215.79,76.65,223,84,223,94S215.79,111.25,204.9,111.25Zm66.54,22.18H260.55L248.62,111h-7v22.42h-9.69V76.65h21.78c11,0,17.77,7.61,17.77,17.22,0,8.09-4.88,14.25-12.81,16.17Zm35.24,1.2c-14.9,0-28.83-11-28.83-29.63s13.93-29.55,28.83-29.55,28.9,11,28.9,29.55S321.57,134.63,306.68,134.63ZM381.06,85.7h-25.7v15.94h23.06v8.89H355.36v22.9h-9.61V76.65h35.31Zm19.06,47.73h-9.77V76.65h9.77Zm49.24,0H413.73V76.65h9.61V124.3h26Zm43.88-47.81H467.78v15.06h23.06v8.72H467.78v15.06h25.46v9H458.17V76.65h35.07Z" transform="translate(0 0.63)"/><path class="cls-1" d="M167.37,1257.13c-2.38,0-4.47,1.79-4.47,5.1s2.09,5.12,4.47,5.12,4.47-1.79,4.47-5.12S169.75,1257.13,167.37,1257.13Z" transform="translate(0 0.63)"/><path class="cls-1" d="M76.54,1442.93c-2.38,0-4.47,1.79-4.47,5.09s2.09,5.13,4.47,5.13S81,1451.36,81,1448,78.92,1442.93,76.54,1442.93Z" transform="translate(0 0.63)"/><path class="cls-1" d="M203.46,85.14h-10v17.62h10c6.09,0,9.77-3.37,9.77-8.73S209.55,85.14,203.46,85.14Z" transform="translate(0 0.63)"/><path class="cls-1" d="M251.91,85.14H241.58v17.38h10.33c5.92,0,9.76-3.45,9.76-8.65S257.83,85.14,251.91,85.14Z" transform="translate(0 0.63)"/><path class="cls-1" d="M558.63,673.21H116.37V641.68H2.5v791.45a40,40,0,0,0,40,40h590a40,40,0,0,0,40-40V641.68H558.63Zm-512.56,782-2.29-5.9H34.43l-2.24,5.9H29.06l8.4-21.12h3.37l8.4,21.12Zm3.21-567.86a2,2,0,1,1,2-2A2,2,0,0,1,49.28,887.34Zm1.4,3.42v14.33H47.91V890.76Zm9.8,89.49,15.41-36.73H87v48.13H78.88V956.22l-15,35.43H56.81L42,956.35v35.3H34V943.52H44.86Zm1.92-89.72a5.56,5.56,0,0,1,.93.08v3a8.8,8.8,0,0,0-1.23-.09c-2.35,0-3.93,1.25-3.93,4.41v7.18h-2.8V890.76h2.74v2.51A4.48,4.48,0,0,1,62.4,890.53ZM72,899.4l-2.44-.54a4.07,4.07,0,0,1-3.58-4c0-2.44,2.3-4.52,5.1-4.52,3.93,0,5.15,2.56,5.45,3.84l-2.47.92a2.79,2.79,0,0,0-3-2.38,2.17,2.17,0,0,0-2.39,1.91c0,.86.54,1.48,1.64,1.72l2.33.51c2.59.57,4,2.14,4,4.26s-1.7,4.44-5.25,4.44c-3.93,0-5.59-2.54-5.83-4.17l2.53-.9a3.05,3.05,0,0,0,3.34,2.68c1.57,0,2.44-.89,2.44-1.9S73.15,899.67,72,899.4Zm15.75-8.64v2.53H84.62v7.45c0,1.31.53,2,2,2a5.6,5.6,0,0,0,1.1-.12V905a6.06,6.06,0,0,1-1.9.27,3.71,3.71,0,0,1-4-4.08v-7.87H79.08v-2.53h.77a2,2,0,0,0,2.2-2.2v-2.32h2.57v4.52Zm-43.42-4.08H34.37v6.79h9v2.74h-9v8.88H31.45V884H44.29Zm.05,197.83v2.74H31.45v-21.12h2.92v18.38Zm9-9.65a3,3,0,0,0-3.25,2.89l-2.68-.63c.3-2.74,2.77-4.65,5.87-4.65,4.29,0,6,2.45,6,5.25v7.17a13.42,13.42,0,0,0,.18,2.36H56.68a10.51,10.51,0,0,1-.15-1.94,5.21,5.21,0,0,1-4.61,2.39c-2.92,0-4.8-2-4.8-4.29,0-2.57,1.88-4,4.35-4.35l3.87-.57c.87-.12,1.1-.56,1.1-1.07C56.44,1076,55.52,1074.86,53.35,1074.86Zm9.5,50.82H73.58L54.1,1146.93l19.68,26.88H63.53l-15-20.84-6.38,7v13.85H34v-48.13h8.15v23.08ZM69,1081.56,66.6,1081a4.07,4.07,0,0,1-3.58-4c0-2.44,2.3-4.53,5.1-4.53,3.93,0,5.15,2.57,5.45,3.85l-2.48.92a2.77,2.77,0,0,0-3-2.38,2.17,2.17,0,0,0-2.39,1.9c0,.87.54,1.49,1.64,1.73l2.33.51c2.59.56,4,2.14,4,4.26s-1.7,4.44-5.25,4.44c-3.93,0-5.6-2.54-5.83-4.17l2.53-.9a3.05,3.05,0,0,0,3.33,2.68c1.58,0,2.45-.89,2.45-1.9S70.23,1081.83,69,1081.56ZM40.59,1267.17a6.7,6.7,0,0,0,6.73-5.06l2.59,1a9.21,9.21,0,0,1-9.32,6.79c-5.45,0-10.48-4-10.48-11s5.24-11,10.48-11c4.83,0,8.22,2.62,9.29,6.7l-2.71,1a6.25,6.25,0,0,0-6.58-5c-3.84,0-7.5,2.8-7.5,8.31S36.75,1267.17,40.59,1267.17Zm18.78.21c2.27,0,3.4-1.49,3.4-3.66v-8.64h2.8v11.68a24,24,0,0,0,.15,2.65H63a12.73,12.73,0,0,1-.12-1.73,4.67,4.67,0,0,1-4.23,2.17c-3.34,0-5.36-2.5-5.36-5.75v-9h2.8v8.61C56.13,1265.65,57,1267.38,59.37,1267.38Zm4.57,40.46v7.67H42.15V1329H61.7v7.54H42.15V1356H34v-48.13Zm-4.27,147.75a5.13,5.13,0,0,1-4.65-2.47v2.08H52.25v-21.56H55v9.26a5.24,5.24,0,0,1,4.74-2.44c4.35,0,6.58,3.33,6.58,7.5S63.93,1455.59,59.67,1455.59Zm16.87.06c-4.29,0-7.33-3.25-7.33-7.63a7.33,7.33,0,1,1,14.66,0C83.87,1452.4,80.83,1455.65,76.54,1455.65Zm20.65-.45a12.61,12.61,0,0,1-.12-1.73,4.68,4.68,0,0,1-4.23,2.18c-3.34,0-5.36-2.5-5.36-5.75v-9h2.8v8.61c0,2,.89,3.7,3.25,3.7s3.39-1.49,3.39-3.67v-8.64h2.8v11.68a23.84,23.84,0,0,0,.15,2.65Zm14.27-11.79h-3.1v7.44c0,1.31.53,2,2,2a5.71,5.71,0,0,0,1.11-.12v2.38a6.15,6.15,0,0,1-1.91.27,3.72,3.72,0,0,1-4-4.08v-7.86h-2.74v-2.54h.77a2,2,0,0,0,2.2-2.2v-2.32h2.57v4.52h3.1Zm20.63,11.79h-2.92v-9l-7.44-12.1h3.51l5.48,9.42,5.48-9.42h3.34l-7.45,12.1Zm14.2.45c-4.28,0-7.32-3.25-7.32-7.63a7.33,7.33,0,1,1,14.65,0C153.62,1452.4,150.58,1455.65,146.29,1455.65Zm20.65-.45a12.61,12.61,0,0,1-.12-1.73,4.67,4.67,0,0,1-4.23,2.18c-3.33,0-5.36-2.5-5.36-5.75v-9H160v8.61c0,2,.9,3.7,3.25,3.7s3.39-1.49,3.39-3.67v-8.64h2.8v11.68a23.84,23.84,0,0,0,.15,2.65Zm475.58-72.32h-610v-5h610Zm-565.19-128a5.28,5.28,0,0,1,.92.09v3a8.66,8.66,0,0,0-1.22-.09c-2.35,0-3.93,1.25-3.93,4.41v7.18H70.3v-14.33H73v2.5A4.49,4.49,0,0,1,77.33,1254.84Zm10.75,53c9.3,0,15.07,6.45,15.07,14.59a13.58,13.58,0,0,1-10.86,13.72L103.15,1356H93.92l-10.11-19h-6v19H69.62v-48.13Zm.28-53a5.31,5.31,0,0,1,.93.09v3a8.8,8.8,0,0,0-1.23-.09c-2.35,0-3.93,1.25-3.93,4.41v7.18h-2.8v-14.33h2.74v2.5A4.5,4.5,0,0,1,88.36,1254.84Zm10.21,12.54a3.91,3.91,0,0,0,4-2.89l2.41.84a6.48,6.48,0,0,1-6.43,4.52c-3.84,0-7.21-2.8-7.21-7.65,0-4.5,3.25-7.57,6.85-7.57,4.41,0,6.88,3,6.88,7.51a6.18,6.18,0,0,1-.06.89H94.25A4.26,4.26,0,0,0,98.57,1267.38Zm17.5-12.72c3.42,0,5.12,2.47,5.12,5.66v9.09h-2.8v-8.61c0-2-.83-3.61-3.34-3.61-2.2,0-3.33,1.76-3.33,3.94v8.28h-2.8v-14.33h2.74v2.05A4.92,4.92,0,0,1,116.07,1254.66Zm15.68,52.16c12.62,0,24.5,9.3,24.5,25S144.37,1357,131.75,1357s-24.44-9.3-24.44-25.12S119.12,1306.82,131.75,1306.82Zm.88-51.74v2.53h-3.1v7.45c0,1.31.54,2,2,2a5.69,5.69,0,0,0,1.1-.12v2.39a6.19,6.19,0,0,1-1.91.26,3.71,3.71,0,0,1-4-4.08v-7.86H124v-2.53h.78a2,2,0,0,0,2.2-2.21v-2.32h2.56v4.53Zm17.12,12.06c2.15,0,3.46-1.4,3.46-3.84v-15h2.91v14.8c0,3.69-2.41,6.76-6.34,6.76-4.14,0-6.58-2.68-6.58-6.73v-1.37l2.92-.65v2C146.12,1265.89,147.64,1267.14,149.75,1267.14Zm36.19-12.48c4.35,0,6.58,3.34,6.58,7.51s-2.41,7.62-6.67,7.62a5.11,5.11,0,0,1-4.65-2.47v2.09h-2.77v-21.57h2.77v9.27A5.22,5.22,0,0,1,185.94,1254.66Zm9.87,87.33v-34.15H204V1356h-8.49l-23.76-36.45V1356h-8.14v-48.13H174Zm28.58-90.34a2,2,0,0,1,0-4,2,2,0,1,1,0,4Zm1.4,3.43v14.33H223v-14.33Zm22.57,52.76v7.67H232.68V1356h-8.14v-40.46H208.92v-7.67Zm-10.86-52.76v2.53h-3.1v7.45c0,1.31.54,2,2,2a5.69,5.69,0,0,0,1.1-.12v2.39a6.19,6.19,0,0,1-1.91.26,3.71,3.71,0,0,1-4-4.08v-7.86h-2.74v-2.53h.78a2,2,0,0,0,2.2-2.21v-2.32h2.56v4.53Zm3.67,14.33v-21.57H244v21.57Zm13.76-2a3.91,3.91,0,0,0,4-2.89l2.41.84a6.5,6.5,0,0,1-6.44,4.52c-3.84,0-7.2-2.8-7.2-7.65,0-4.5,3.24-7.57,6.85-7.57,4.4,0,6.88,3,6.88,7.51a6.18,6.18,0,0,1-.06.89H250.62A4.24,4.24,0,0,0,254.93,1267.38ZM219.68,1251h-7.06v18.41H209.7V1251h-7.06v-2.71h17Zm-52.31,18.85c-4.29,0-7.33-3.24-7.33-7.62a7.33,7.33,0,1,1,14.66,0C174.7,1266.61,171.66,1269.85,167.37,1269.85Zm132.18,58.35v7.4H280v12.77h21.59v7.6H271.86v-48.13h29.73v7.6H280v12.76ZM309.89,1356v-48.13h10.39L342.14,1342v-34.15h8.14V1356H341.8L318,1319.52V1356Zm50.48,0v-48.13h17c13.1,0,23.42,8.69,23.42,24.17s-10.46,24-23.49,24Zm65.85,0v-48.13h17c13.11,0,23.42,8.69,23.42,24.17s-10.45,24-23.49,24Zm75.55-27.77v7.4H482.22v12.77h21.59v7.6H474.07v-48.13h29.74v7.6H482.22v12.76ZM534,1356h-8.28l-17.92-48.13h8.82l13.44,37.47,13.51-37.47h8.62Zm21.63-10.66a5.54,5.54,0,1,1,0,11.07,5.54,5.54,0,0,1,0-11.07Zm12.38,5.57a5.53,5.53,0,0,1,5.5-5.57,5.54,5.54,0,1,1,0,11.07A5.48,5.48,0,0,1,568.05,1350.88Zm17.87,0a5.54,5.54,0,1,1,5.5,5.5A5.54,5.54,0,0,1,585.92,1350.88Zm56.6-150.16h-610v-5h610ZM84.79,1072.92v2.53h-3.1v7.45c0,1.31.54,2,2,2a5.67,5.67,0,0,0,1.1-.11v2.38a6.06,6.06,0,0,1-1.9.27,3.72,3.72,0,0,1-4-4.08v-7.87H76.15v-2.53h.78a2,2,0,0,0,2.2-2.2v-2.33h2.56v4.53Zm23.71,52.76v7.6H86.92v12.77h19.55v7.4H86.92v12.76H108.5v7.6H78.77v-48.13Zm-11-38.43v-21.12h3.9l10.54,16.2v-16.2h2.92v21.12h-3L100.37,1070v17.22Zm28-12.39a3,3,0,0,0-3.25,2.89l-2.68-.63c.3-2.74,2.77-4.65,5.87-4.65,4.29,0,6,2.45,6,5.25v7.17a13.42,13.42,0,0,0,.18,2.36h-2.74a10.51,10.51,0,0,1-.15-1.94,5.25,5.25,0,0,1-4.62,2.39,4.46,4.46,0,0,1-4.79-4.29c0-2.57,1.87-4,4.35-4.35l3.87-.57c.86-.12,1.1-.56,1.1-1.07C128.51,1076,127.59,1074.86,125.41,1074.86Zm-.46,50.82v40.39H147v7.74H116.8v-48.13Zm17.86-53.18a4.48,4.48,0,0,1,4.29,2.71,5.15,5.15,0,0,1,4.79-2.71c2.51,0,5,1.7,5,5.45v9.3h-2.77v-9c0-1.87-.92-3.27-3-3.27a3.35,3.35,0,0,0-3.31,3.6v8.67h-2.79v-9c0-1.84-.9-3.27-3-3.27a3.32,3.32,0,0,0-3.34,3.63v8.64h-2.77v-14.33h2.68v1.91A5,5,0,0,1,142.81,1072.5Zm24.82,12.72a3.9,3.9,0,0,0,4-2.89l2.41.84a6.49,6.49,0,0,1-6.43,4.53c-3.84,0-7.21-2.81-7.21-7.66,0-4.5,3.25-7.57,6.85-7.57,4.41,0,6.88,3,6.88,7.51a6.06,6.06,0,0,1-.06.89H163.31A4.25,4.25,0,0,0,167.63,1085.22Zm-7.18,40.46v40.39h22.06v7.74H152.3v-48.13Zm15.81,0h9.64l11.54,20.16,11.61-20.16h9.16l-17,27.77v20.36h-8.15v-20.36Zm466.26-107.12h-610v-5h610Zm-515.67-75v7.6H105.26v12.77h19.55v7.4H105.26v12.76h21.59v7.6H97.12V943.52Zm-26.48-38.43V884h3.9l10.54,16.21V884h2.92v21.12h-3l-11.4-17.22v17.22Zm28-12.39a3,3,0,0,0-3.24,2.89L122.4,895c.3-2.74,2.77-4.64,5.87-4.64,4.29,0,6,2.44,6,5.24v7.18a13.37,13.37,0,0,0,.18,2.35h-2.74a10.42,10.42,0,0,1-.15-1.94,5.23,5.23,0,0,1-4.62,2.39,4.46,4.46,0,0,1-4.79-4.29c0-2.56,1.87-4,4.35-4.35l3.87-.57c.86-.12,1.1-.56,1.1-1.07C131.43,893.86,130.51,892.7,128.33,892.7Zm17.4-2.35a4.46,4.46,0,0,1,4.29,2.71,5.14,5.14,0,0,1,4.8-2.71c2.5,0,4.94,1.69,4.94,5.45v9.29H157v-9c0-1.87-.92-3.27-3-3.27a3.34,3.34,0,0,0-3.3,3.6v8.67h-2.8v-9c0-1.84-.9-3.27-3-3.27a3.32,3.32,0,0,0-3.34,3.63v8.64H138.7V890.76h2.68v1.91A4.94,4.94,0,0,1,145.73,890.35Zm9.93,52.15c11.68,0,19.15,6.72,21.73,14.67l-7.67,2.92c-1.63-5.43-6.39-10.05-14.06-10.05s-15.95,5.57-15.95,17.51c0,11.75,7.6,17.65,15.89,17.65,9.7,0,13.37-6.65,13.78-10.79H153.49v-7.13h23.56v24.37h-6.59l-.61-6.11c-2.1,3.53-7.06,7.13-14.73,7.13-12.56,0-23.69-9.23-23.69-25.12S143.17,942.5,155.66,942.5Zm14.89-39.44a3.9,3.9,0,0,0,4-2.88L177,901a6.49,6.49,0,0,1-6.43,4.53c-3.84,0-7.21-2.8-7.21-7.66,0-4.5,3.25-7.56,6.85-7.56,4.41,0,6.88,3,6.88,7.5a6.34,6.34,0,0,1-.06.9H166.23A4.25,4.25,0,0,0,170.55,903.06Zm36.56,82.14c9.71,0,13.38-6.65,13.78-10.79H205v-7.13h23.55v24.37H222l-.61-6.11c-2.11,3.53-7.06,7.13-14.73,7.13-12.56,0-23.69-9.23-23.69-25.12s11.74-25,24.23-25c11.68,0,19.14,6.72,21.72,14.67l-7.67,2.92c-1.63-5.43-6.38-10.05-14-10.05s-16,5.57-16,17.51C191.23,979.3,198.83,985.2,207.11,985.2Zm25.59,6.45,18.74-48.13h9.44l18.73,48.13h-8.89l-4.55-12.08H245.8l-4.48,12.08Zm51.78,0V943.52h10.38l21.86,34.15V943.52h8.15v48.13h-8.49L292.62,955.2v36.45ZM646.94,760.07v4.86a50.21,50.21,0,0,1-50.15,50.15H78.21a50.21,50.21,0,0,1-50.15-50.15v-4.86a50.21,50.21,0,0,1,50.15-50.15H596.79A50.21,50.21,0,0,1,646.94,760.07Z" transform="translate(0 0.63)"/><path class="cls-1" d="M356.46,752.14h-5.38v9.05h5.38c3.08,0,5.08-1.79,5.08-4.5S359.54,752.14,356.46,752.14Z" transform="translate(0 0.63)"/><path class="cls-1" d="M315.9,752.31h-5.3v20.38h5.26c5.12,0,9.37-3.29,9.37-10.13S321,752.31,315.9,752.31Z" transform="translate(0 0.63)"/><path class="cls-1" d="M78.21,714.92a45.2,45.2,0,0,0-45.15,45.15v4.86a45.2,45.2,0,0,0,45.15,45.15H596.79a45.2,45.2,0,0,0,45.15-45.15v-4.86a45.2,45.2,0,0,0-45.15-45.15ZM193,767c0,7.13-4.84,10.92-11,10.92s-11-3.79-11-10.92V747.72h5v19c0,4.17,2.29,6.46,6,6.46s6-2.29,6-6.46v-19h5Zm17.24-1.25h-6v11.55h-5V747.72h11c5.67,0,9.43,3.84,9.43,9S215.89,765.73,210.22,765.73Zm31.65,11.55H223.32V747.72h5v24.81h13.55Zm16.22.62c-7.76,0-15-5.71-15-15.42s7.25-15.38,15-15.38,15.05,5.71,15.05,15.38S265.84,777.9,258.09,777.9Zm38.73-.62L294,769.86H281.52l-2.75,7.42h-5.3L285,747.72h5.8l11.5,29.56Zm19.2,0H305.6V747.72h10.46c8.05,0,14.39,5.34,14.39,14.84S324,777.28,316,777.28Zm50.61,0H361l-6.21-11.67h-3.67v11.67h-5V747.72h11.34c5.71,0,9.25,4,9.25,9a8.33,8.33,0,0,1-6.67,8.42Zm23.15-24.89H376.53v7.84h12v4.54h-12v7.84h13.25v4.67H371.53V747.72h18.25Zm14.43,25.51c-7.5,0-11-4.83-11.42-9.08l4.67-1.34a6.35,6.35,0,0,0,6.75,5.92c3.54,0,5.38-1.79,5.38-4.08,0-1.92-1.42-3.46-4-4l-4.16-.88c-4.5-.92-7.51-3.88-7.51-8.3,0-5,4.55-9,10.05-9,7,0,9.67,4.25,10.34,7.54l-4.5,1.42a5.47,5.47,0,0,0-5.8-4.54c-3,0-5.08,2-5.08,4.25,0,1.87,1.16,3.29,3.46,3.79l4.25.88c5.21,1,8,4.33,8,8.5C414.67,773.53,411,777.9,404.21,777.9Zm37-10.92c0,7.13-4.84,10.92-11,10.92s-11-3.79-11-10.92V747.72h5v19c0,4.17,2.29,6.46,6,6.46s6-2.29,6-6.46v-19h5Zm38.8,10.3h-5V755.52l-9.21,21.76H461.5l-9.13-21.68v21.68h-4.88V747.72h6.67l9.59,22.56,9.46-22.56H480Zm24.81-24.89H491.57v7.84h12v4.54h-12v7.84h13.25v4.67H486.57V747.72h18.25Z" transform="translate(0 0.63)"/><polygon class="cls-1" points="283.27 765.87 292.27 765.87 287.77 753.78 283.27 765.87"/><path class="cls-2" d="M78.21,709.92a50.21,50.21,0,0,0-50.15,50.15v4.86a50.21,50.21,0,0,0,50.15,50.15H596.79a50.21,50.21,0,0,0,50.15-50.15v-4.86a50.21,50.21,0,0,0-50.15-50.15Zm563.73,50.15v4.86a45.2,45.2,0,0,1-45.15,45.15H78.21a45.2,45.2,0,0,1-45.15-45.15v-4.86a45.2,45.2,0,0,1,45.15-45.15H596.79A45.2,45.2,0,0,1,641.94,760.07Z" transform="translate(0 0.63)"/><path class="cls-2" d="M188,766.69c0,4.17-2.25,6.46-6,6.46s-6-2.29-6-6.46v-19h-5V767c0,7.13,4.83,10.92,11,10.92s11-3.79,11-10.92V747.72h-5Z" transform="translate(0 0.63)"/><path class="cls-2" d="M210.22,747.72h-11v29.56h5V765.73h6c5.67,0,9.43-3.79,9.43-9S215.89,747.72,210.22,747.72Zm-.75,13.59h-5.21v-9.17h5.21c3.17,0,5.09,1.79,5.09,4.63S212.64,761.31,209.47,761.31Z" transform="translate(0 0.63)"/><polygon class="cls-2" points="228.32 748.36 223.32 748.36 223.32 777.91 241.87 777.91 241.87 773.16 228.32 773.16 228.32 748.36"/><path class="cls-2" d="M258.09,747.1c-7.76,0-15,5.71-15,15.38s7.25,15.42,15,15.42,15.05-5.71,15.05-15.42S265.84,747.1,258.09,747.1Zm0,26c-5,0-9.88-3.54-9.88-10.67s4.92-10.67,9.88-10.67,9.92,3.54,9.92,10.67S263.09,773.15,258.09,773.15Z" transform="translate(0 0.63)"/><path class="cls-2" d="M285,747.72l-11.51,29.56h5.3l2.75-7.42H294l2.79,7.42h5.46l-11.5-29.56Zm-1.71,17.51,4.5-12.09,4.51,12.09Z" transform="translate(0 0.63)"/><path class="cls-2" d="M316.06,747.72H305.6v29.56H316c8,0,14.43-5.25,14.43-14.72S324.11,747.72,316.06,747.72Zm-.2,25H310.6V752.31h5.3c5.12,0,9.33,3.33,9.33,10.25S321,772.69,315.86,772.69Z" transform="translate(0 0.63)"/><path class="cls-2" d="M366.63,756.69c0-5-3.54-9-9.25-9H346v29.56h5V765.61h3.67L361,777.28h5.67L360,765.11A8.33,8.33,0,0,0,366.63,756.69Zm-10.17,4.5h-5.38v-9.05h5.38c3.08,0,5.08,1.79,5.08,4.55S359.54,761.19,356.46,761.19Z" transform="translate(0 0.63)"/><polygon class="cls-2" points="371.52 777.91 389.78 777.91 389.78 773.25 376.53 773.25 376.53 765.41 388.53 765.41 388.53 760.86 376.53 760.86 376.53 753.03 389.78 753.03 389.78 748.36 371.52 748.36 371.52 777.91"/><path class="cls-2" d="M406.67,760.44l-4.25-.88c-2.3-.5-3.46-1.92-3.46-3.79,0-2.25,2.08-4.25,5.08-4.25a5.47,5.47,0,0,1,5.8,4.54l4.5-1.42c-.67-3.29-3.38-7.54-10.34-7.54-5.5,0-10.05,4.08-10.05,9,0,4.42,3,7.38,7.51,8.3l4.16.88c2.55.54,4,2.08,4,4,0,2.29-1.84,4.08-5.38,4.08a6.35,6.35,0,0,1-6.75-5.92l-4.67,1.34c.45,4.25,3.92,9.08,11.42,9.08,6.75,0,10.46-4.37,10.46-9C414.67,764.77,411.88,761.48,406.67,760.44Z" transform="translate(0 0.63)"/><path class="cls-2" d="M436.2,766.69c0,4.17-2.25,6.46-6,6.46s-6-2.29-6-6.46v-19h-5V767c0,7.13,4.84,10.92,11,10.92s11-3.79,11-10.92V747.72h-5Z" transform="translate(0 0.63)"/><polygon class="cls-2" points="463.75 770.91 454.16 748.36 447.49 748.36 447.49 777.91 452.37 777.91 452.37 756.24 461.5 777.91 465.83 777.91 475.05 756.15 475.05 777.91 480.01 777.91 480.01 748.36 473.21 748.36 463.75 770.91"/><polygon class="cls-2" points="486.56 777.91 504.82 777.91 504.82 773.25 491.57 773.25 491.57 765.41 503.57 765.41 503.57 760.86 491.57 760.86 491.57 753.03 504.82 753.03 504.82 748.36 486.56 748.36 486.56 777.91"/><rect class="cls-2" x="32.48" y="1014.2" width="610.03" height="5"/><path class="cls-3" d="M2.5,641.68H116.37v-7.24A147.73,147.73,0,0,1,264.1,486.71H410.9A147.73,147.73,0,0,1,558.63,634.44v7.24H672.5V202.2H2.5Zm335-389.79A107.69,107.69,0,1,1,229.82,359.58,107.69,107.69,0,0,1,337.5,251.89Z" transform="translate(0 0.63)"/><path class="cls-2" d="M204.9,76.65H183.84v56.78h9.61V111.25H204.9c10.89,0,18.1-7.29,18.1-17.3S215.79,76.65,204.9,76.65Zm-1.44,26.11h-10V85.14h10c6.09,0,9.77,3.44,9.77,8.89S209.55,102.76,203.46,102.76Z" transform="translate(0 0.63)"/><path class="cls-2" d="M271.44,93.87c0-9.61-6.8-17.22-17.77-17.22H231.89v56.78h9.69V111h7l11.93,22.42h10.89L258.63,110C266.56,108.12,271.44,102,271.44,93.87Zm-19.53,8.65H241.58V85.14h10.33c5.92,0,9.76,3.44,9.76,8.73S257.83,102.52,251.91,102.52Z" transform="translate(0 0.63)"/><path class="cls-2" d="M306.68,75.45c-14.9,0-28.83,11-28.83,29.55s13.93,29.63,28.83,29.63,28.9-11,28.9-29.63S321.57,75.45,306.68,75.45Zm0,50.05c-9.53,0-19-6.81-19-20.5s9.45-20.5,19-20.5,19.05,6.81,19.05,20.5S316.29,125.5,306.68,125.5Z" transform="translate(0 0.63)"/><polygon class="cls-2" points="345.75 134.06 355.36 134.06 355.36 111.16 378.42 111.16 378.42 102.27 355.36 102.27 355.36 86.33 381.06 86.33 381.06 77.29 345.75 77.29 345.75 134.06"/><rect class="cls-2" x="390.35" y="77.29" width="9.77" height="56.78"/><polygon class="cls-2" points="423.34 77.29 413.73 77.29 413.73 134.06 449.36 134.06 449.36 124.93 423.34 124.93 423.34 77.29"/><polygon class="cls-2" points="458.17 134.06 493.24 134.06 493.24 125.09 467.78 125.09 467.78 110.04 490.84 110.04 490.84 101.31 467.78 101.31 467.78 86.25 493.24 86.25 493.24 77.29 458.17 77.29 458.17 134.06"/><polygon class="cls-2" points="83.03 109.77 99.35 93.46 95.81 89.92 79.5 106.23 79.5 109.77 83.03 109.77"/><polygon class="cls-2" points="79.5 109.77 79.5 106.23 79.5 89.5 74.5 89.5 74.5 114.77 99.77 114.77 99.77 109.77 83.03 109.77 79.5 109.77"/><circle class="cls-1" cx="337.5" cy="359.58" r="107.68" transform="translate(-155.41 344.6) rotate(-45)"/><path class="cls-1" d="M558.63,673.21V634.44A147.73,147.73,0,0,0,410.9,486.71H264.1A147.73,147.73,0,0,0,116.37,634.44v38.77ZM337.5,516.82a49.85,49.85,0,1,1-49.84,49.85A49.84,49.84,0,0,1,337.5,516.82Z" transform="translate(0 0.63)"/><path class="cls-2" d="M337.5,616.51a49.85,49.85,0,1,0-49.84-49.84A49.83,49.83,0,0,0,337.5,616.51Zm-31.17-51.84H335.5V535.49h4v29.18h29.17v4H339.5v29.17h-4V568.67H306.33Z" transform="translate(0 0.63)"/><rect class="cls-1" x="335.5" y="536.13" width="4" height="29.17"/><rect class="cls-1" x="335.5" y="569.3" width="4" height="29.17"/><polygon class="cls-1" points="339.5 569.3 368.67 569.3 368.67 565.3 339.5 565.3 335.5 565.3 306.33 565.3 306.33 569.3 335.5 569.3 339.5 569.3"/><polygon class="cls-2" points="34 944.16 34 992.29 41.95 992.29 41.95 956.99 56.81 992.29 63.87 992.29 78.88 956.85 78.88 992.29 86.95 992.29 86.95 944.16 75.89 944.16 60.48 980.88 44.86 944.16 34 944.16"/><polygon class="cls-2" points="97.11 992.29 126.85 992.29 126.85 984.68 105.26 984.68 105.26 971.92 124.81 971.92 124.81 964.52 105.26 964.52 105.26 951.76 126.85 951.76 126.85 944.16 97.11 944.16 97.11 992.29"/><path class="cls-2" d="M155.12,992.67c7.67,0,12.63-3.6,14.73-7.13l.61,6.11h6.59V967.28H153.49v7.13h15.89c-.41,4.14-4.08,10.79-13.78,10.79-8.29,0-15.89-5.9-15.89-17.65,0-11.94,8.15-17.51,15.95-17.51s12.43,4.62,14.06,10.05l7.67-2.92c-2.58-7.95-10-14.67-21.73-14.67-12.49,0-24.23,9.24-24.23,25S142.56,992.67,155.12,992.67Z" transform="translate(0 0.63)"/><path class="cls-2" d="M207.18,950c7.67,0,12.42,4.62,14,10.05l7.67-2.92c-2.58-7.95-10-14.67-21.72-14.67-12.49,0-24.23,9.24-24.23,25s11.13,25.12,23.69,25.12c7.67,0,12.62-3.6,14.73-7.13l.61,6.11h6.58V967.28H205v7.13h15.88c-.4,4.14-4.07,10.79-13.78,10.79-8.28,0-15.88-5.9-15.88-17.65C191.23,955.61,199.37,950,207.18,950Z" transform="translate(0 0.63)"/><path class="cls-2" d="M266.17,979.57l4.55,12.08h8.89l-18.73-48.13h-9.44L232.7,991.65h8.62l4.48-12.08ZM256,952.35,263.32,972H248.66Z" transform="translate(0 0.63)"/><polygon class="cls-2" points="316.38 992.29 324.87 992.29 324.87 944.16 316.73 944.16 316.73 978.3 294.86 944.16 284.48 944.16 284.48 992.29 292.62 992.29 292.62 955.83 316.38 992.29"/><polygon class="cls-4" points="31.45 905.72 34.37 905.72 34.37 896.85 43.36 896.85 43.36 894.11 34.37 894.11 34.37 887.32 44.28 887.32 44.28 884.61 31.45 884.61 31.45 905.72"/><path class="cls-4" d="M51.3,885.34a2,2,0,1,0-2,2A2,2,0,0,0,51.3,885.34Z" transform="translate(0 0.63)"/><rect class="cls-4" x="47.91" y="891.4" width="2.77" height="14.33"/><path class="cls-4" d="M55.37,890.76v14.33h2.8v-7.18c0-3.16,1.58-4.41,3.93-4.41a8.8,8.8,0,0,1,1.23.09v-3a5.56,5.56,0,0,0-.93-.08,4.48,4.48,0,0,0-4.29,2.74v-2.51Z" transform="translate(0 0.63)"/><path class="cls-4" d="M71.37,903.15A3.05,3.05,0,0,1,68,900.47l-2.53.9c.24,1.63,1.9,4.17,5.83,4.17,3.55,0,5.25-2.42,5.25-4.44s-1.37-3.69-4-4.26l-2.33-.51c-1.1-.24-1.64-.86-1.64-1.72A2.17,2.17,0,0,1,71,892.7a2.79,2.79,0,0,1,3,2.38l2.47-.92c-.3-1.28-1.52-3.84-5.45-3.84-2.8,0-5.1,2.08-5.1,4.52a4.07,4.07,0,0,0,3.58,4l2.44.54c1.19.27,1.85,1,1.85,1.85S72.94,903.15,71.37,903.15Z" transform="translate(0 0.63)"/><path class="cls-4" d="M82.05,886.24v2.32a2,2,0,0,1-2.2,2.2h-.77v2.53h2.74v7.87a3.71,3.71,0,0,0,4,4.08,6.06,6.06,0,0,0,1.9-.27v-2.38a5.6,5.6,0,0,1-1.1.12c-1.46,0-2-.66-2-2v-7.45h3.09v-2.53H84.62v-4.52Z" transform="translate(0 0.63)"/><polygon class="cls-4" points="114.69 905.72 117.73 905.72 117.73 884.61 114.81 884.61 114.81 900.81 104.27 884.61 100.37 884.61 100.37 905.72 103.28 905.72 103.28 888.51 114.69 905.72"/><path class="cls-4" d="M130.33,896.33l-3.87.57c-2.48.36-4.35,1.79-4.35,4.35a4.46,4.46,0,0,0,4.79,4.29,5.23,5.23,0,0,0,4.62-2.39,10.42,10.42,0,0,0,.15,1.94h2.74a13.37,13.37,0,0,1-.18-2.35v-7.18c0-2.8-1.67-5.24-6-5.24-3.1,0-5.57,1.9-5.87,4.64l2.69.63a3,3,0,0,1,3.24-2.89c2.18,0,3.1,1.16,3.1,2.56C131.43,895.77,131.19,896.21,130.33,896.33Zm1.1,2.62c0,3.13-1.85,4.23-4.14,4.23A2.17,2.17,0,0,1,125,901.1a2.14,2.14,0,0,1,2.08-2.15l4.38-.65Z" transform="translate(0 0.63)"/><path class="cls-4" d="M138.7,890.76v14.33h2.77v-8.64a3.32,3.32,0,0,1,3.34-3.63c2.14,0,3,1.43,3,3.27v9h2.8v-8.67a3.34,3.34,0,0,1,3.3-3.6c2.12,0,3,1.4,3,3.27v9h2.77V895.8c0-3.76-2.44-5.45-4.94-5.45a5.14,5.14,0,0,0-4.8,2.71,4.46,4.46,0,0,0-4.29-2.71,4.94,4.94,0,0,0-4.35,2.32v-1.91Z" transform="translate(0 0.63)"/><path class="cls-4" d="M177.07,897.82c0-4.47-2.47-7.5-6.88-7.5-3.6,0-6.85,3.06-6.85,7.56,0,4.86,3.37,7.66,7.21,7.66A6.49,6.49,0,0,0,177,901l-2.41-.83a3.9,3.9,0,0,1-4,2.88,4.25,4.25,0,0,1-4.32-4.34H177A6.34,6.34,0,0,0,177.07,897.82Zm-10.75-1.37a3.86,3.86,0,0,1,3.9-3.66,3.6,3.6,0,0,1,3.93,3.66Z" transform="translate(0 0.63)"/><rect class="cls-2" x="32.48" y="1196.36" width="610.03" height="5"/><polygon class="cls-2" points="42.15 1126.32 34 1126.32 34 1174.45 42.15 1174.45 42.15 1160.6 48.53 1153.61 63.53 1174.45 73.78 1174.45 54.1 1147.56 73.58 1126.32 62.85 1126.32 42.15 1149.4 42.15 1126.32"/><polygon class="cls-2" points="78.77 1174.45 108.5 1174.45 108.5 1166.84 86.92 1166.84 86.92 1154.08 106.47 1154.08 106.47 1146.68 86.92 1146.68 86.92 1133.92 108.5 1133.92 108.5 1126.32 78.77 1126.32 78.77 1174.45"/><polygon class="cls-2" points="116.81 1174.45 147.01 1174.45 147.01 1166.71 124.95 1166.71 124.95 1126.32 116.81 1126.32 116.81 1174.45"/><polygon class="cls-2" points="152.31 1174.45 182.51 1174.45 182.51 1166.71 160.45 1166.71 160.45 1126.32 152.31 1126.32 152.31 1174.45"/><polygon class="cls-2" points="201.24 1174.45 201.24 1154.08 218.21 1126.32 209.05 1126.32 197.44 1146.48 185.9 1126.32 176.26 1126.32 193.09 1154.08 193.09 1174.45 201.24 1174.45"/><polygon class="cls-4" points="31.45 1066.77 31.45 1087.88 44.34 1087.88 44.34 1085.14 34.37 1085.14 34.37 1066.77 31.45 1066.77"/><path class="cls-4" d="M55.34,1078.49l-3.87.57c-2.47.35-4.35,1.78-4.35,4.35,0,2.26,1.88,4.29,4.8,4.29a5.21,5.21,0,0,0,4.61-2.39,10.51,10.51,0,0,0,.15,1.94h2.74a13.42,13.42,0,0,1-.18-2.36v-7.17c0-2.8-1.66-5.25-6-5.25-3.1,0-5.57,1.91-5.87,4.65l2.68.63a3,3,0,0,1,3.25-2.89c2.17,0,3.09,1.16,3.09,2.56C56.44,1077.93,56.21,1078.37,55.34,1078.49Zm1.1,2.62c0,3.13-1.84,4.23-4.14,4.23a2.12,2.12,0,1,1-.23-4.23l4.37-.65Z" transform="translate(0 0.63)"/><path class="cls-4" d="M68.44,1085.31a3.05,3.05,0,0,1-3.33-2.68l-2.53.9c.23,1.63,1.9,4.17,5.83,4.17,3.55,0,5.25-2.42,5.25-4.44s-1.37-3.7-4-4.26l-2.33-.51c-1.1-.24-1.64-.86-1.64-1.73a2.17,2.17,0,0,1,2.39-1.9,2.77,2.77,0,0,1,3,2.38l2.48-.92c-.3-1.28-1.52-3.85-5.45-3.85-2.8,0-5.1,2.09-5.1,4.53a4.07,4.07,0,0,0,3.58,4l2.44.54c1.19.27,1.85,1,1.85,1.85S70,1085.31,68.44,1085.31Z" transform="translate(0 0.63)"/><path class="cls-4" d="M79.13,1068.39v2.33a2,2,0,0,1-2.2,2.2h-.78v2.53h2.74v7.87a3.72,3.72,0,0,0,4,4.08,6.06,6.06,0,0,0,1.9-.27v-2.38a5.67,5.67,0,0,1-1.1.11c-1.46,0-2-.65-2-2v-7.45h3.1v-2.53h-3.1v-4.53Z" transform="translate(0 0.63)"/><polygon class="cls-4" points="111.77 1087.88 114.81 1087.88 114.81 1066.77 111.89 1066.77 111.89 1082.97 101.35 1066.77 97.44 1066.77 97.44 1087.88 100.36 1087.88 100.36 1070.67 111.77 1087.88"/><path class="cls-4" d="M127.41,1078.49l-3.87.57c-2.48.35-4.35,1.78-4.35,4.35a4.46,4.46,0,0,0,4.79,4.29,5.25,5.25,0,0,0,4.62-2.39,10.51,10.51,0,0,0,.15,1.94h2.74a13.42,13.42,0,0,1-.18-2.36v-7.17c0-2.8-1.67-5.25-6-5.25-3.1,0-5.57,1.91-5.87,4.65l2.68.63a3,3,0,0,1,3.25-2.89c2.18,0,3.1,1.16,3.1,2.56C128.51,1077.93,128.27,1078.37,127.41,1078.49Zm1.1,2.62c0,3.13-1.85,4.23-4.14,4.23a2.18,2.18,0,0,1-2.33-2.08,2.15,2.15,0,0,1,2.09-2.15l4.38-.65Z" transform="translate(0 0.63)"/><path class="cls-4" d="M135.78,1072.92v14.33h2.77v-8.64a3.32,3.32,0,0,1,3.34-3.63c2.14,0,3,1.43,3,3.27v9h2.79v-8.67A3.35,3.35,0,0,1,151,1075c2.12,0,3,1.4,3,3.27v9h2.77V1078c0-3.75-2.44-5.45-5-5.45a5.15,5.15,0,0,0-4.79,2.71,4.48,4.48,0,0,0-4.29-2.71,5,5,0,0,0-4.35,2.33v-1.91Z" transform="translate(0 0.63)"/><path class="cls-4" d="M174.15,1080c0-4.47-2.47-7.51-6.88-7.51-3.6,0-6.85,3.07-6.85,7.57,0,4.85,3.37,7.66,7.21,7.66a6.49,6.49,0,0,0,6.43-4.53l-2.41-.84a3.9,3.9,0,0,1-4,2.89,4.25,4.25,0,0,1-4.32-4.35h10.78A6.06,6.06,0,0,0,174.15,1080Zm-10.75-1.37a3.85,3.85,0,0,1,3.9-3.66,3.6,3.6,0,0,1,3.93,3.66Z" transform="translate(0 0.63)"/><rect class="cls-2" x="32.48" y="1378.52" width="610.03" height="5"/><polygon class="cls-2" points="34 1356.61 42.15 1356.61 42.15 1337.19 61.7 1337.19 61.7 1329.65 42.15 1329.65 42.15 1316.14 63.94 1316.14 63.94 1308.47 34 1308.47 34 1356.61"/><path class="cls-2" d="M69.62,1356h8.21v-19h6l10.11,19h9.23l-10.86-19.82a13.58,13.58,0,0,0,10.86-13.72c0-8.14-5.77-14.59-15.07-14.59H69.62ZM77.83,1315h8.76c5,0,8.28,2.92,8.28,7.4s-3.26,7.34-8.28,7.34H77.83Z" transform="translate(0 0.63)"/><path class="cls-2" d="M131.75,1357c12.62,0,24.5-9.3,24.5-25.12s-11.88-25-24.5-25-24.44,9.3-24.44,25S119.12,1357,131.75,1357Zm0-42.5c8.14,0,16.15,5.77,16.15,17.38s-8,17.38-16.15,17.38-16.09-5.77-16.09-17.38S123.67,1314.49,131.75,1314.49Z" transform="translate(0 0.63)"/><polygon class="cls-2" points="163.57 1308.47 163.57 1356.61 171.72 1356.61 171.72 1320.15 195.47 1356.61 203.96 1356.61 203.96 1308.47 195.81 1308.47 195.81 1342.62 173.96 1308.47 163.57 1308.47"/><polygon class="cls-2" points="208.92 1316.14 224.53 1316.14 224.53 1356.61 232.68 1356.61 232.68 1316.14 248.36 1316.14 248.36 1308.47 208.92 1308.47 208.92 1316.14"/><polygon class="cls-2" points="301.59 1316.08 301.59 1308.47 271.86 1308.47 271.86 1356.61 301.59 1356.61 301.59 1349 280 1349 280 1336.24 299.56 1336.24 299.56 1328.84 280 1328.84 280 1316.08 301.59 1316.08"/><polygon class="cls-2" points="341.8 1356.61 350.28 1356.61 350.28 1308.47 342.14 1308.47 342.14 1342.62 320.28 1308.47 309.89 1308.47 309.89 1356.61 318.04 1356.61 318.04 1320.15 341.8 1356.61"/><path class="cls-2" d="M400.83,1332c0-15.48-10.32-24.17-23.42-24.17h-17V1356h17C390.37,1356,400.83,1347.42,400.83,1332Zm-23.76,16.49h-8.56v-33.19h8.63c8.35,0,15.2,5.43,15.2,16.7S385.42,1348.5,377.07,1348.5Z" transform="translate(0 0.63)"/><path class="cls-2" d="M466.68,1332c0-15.48-10.31-24.17-23.42-24.17h-17V1356h17C456.23,1356,466.68,1347.42,466.68,1332Zm-23.76,16.49h-8.55v-33.19H443c8.35,0,15.21,5.43,15.21,16.7S451.27,1348.5,442.92,1348.5Z" transform="translate(0 0.63)"/><polygon class="cls-2" points="503.81 1316.08 503.81 1308.47 474.07 1308.47 474.07 1356.61 503.81 1356.61 503.81 1349 482.22 1349 482.22 1336.24 501.77 1336.24 501.77 1328.84 482.22 1328.84 482.22 1316.08 503.81 1316.08"/><polygon class="cls-2" points="530.1 1345.95 516.66 1308.47 507.84 1308.47 525.76 1356.61 534.04 1356.61 552.23 1308.47 543.61 1308.47 530.1 1345.95"/><path class="cls-2" d="M555.67,1356.38a5.54,5.54,0,1,0-5.5-5.5A5.54,5.54,0,0,0,555.67,1356.38Z" transform="translate(0 0.63)"/><path class="cls-2" d="M579.12,1350.88a5.6,5.6,0,0,0-5.57-5.57,5.54,5.54,0,1,0,5.57,5.57Z" transform="translate(0 0.63)"/><path class="cls-2" d="M597,1350.88a5.54,5.54,0,1,0-11.07,0,5.54,5.54,0,0,0,11.07,0Z" transform="translate(0 0.63)"/><path class="cls-4" d="M40.59,1250.52a6.25,6.25,0,0,1,6.58,5l2.71-1c-1.07-4.08-4.46-6.7-9.29-6.7-5.24,0-10.48,3.93-10.48,11s5,11,10.48,11a9.21,9.21,0,0,0,9.32-6.79l-2.59-1a6.7,6.7,0,0,1-6.73,5.06c-3.84,0-7.5-2.83-7.5-8.34S36.75,1250.52,40.59,1250.52Z" transform="translate(0 0.63)"/><path class="cls-4" d="M53.33,1255.08v9c0,3.25,2,5.75,5.36,5.75a4.67,4.67,0,0,0,4.23-2.17,12.73,12.73,0,0,0,.12,1.73h2.68a24,24,0,0,1-.15-2.65v-11.68h-2.8v8.64c0,2.17-1.13,3.66-3.4,3.66s-3.24-1.73-3.24-3.69v-8.61Z" transform="translate(0 0.63)"/><path class="cls-4" d="M70.3,1255.08v14.33h2.8v-7.18c0-3.16,1.58-4.41,3.93-4.41a8.66,8.66,0,0,1,1.22.09v-3a5.28,5.28,0,0,0-.92-.09,4.49,4.49,0,0,0-4.29,2.74v-2.5Z" transform="translate(0 0.63)"/><path class="cls-4" d="M81.33,1255.08v14.33h2.8v-7.18c0-3.16,1.58-4.41,3.93-4.41a8.8,8.8,0,0,1,1.23.09v-3a5.31,5.31,0,0,0-.93-.09,4.5,4.5,0,0,0-4.29,2.74v-2.5Z" transform="translate(0 0.63)"/><path class="cls-4" d="M105.09,1262.14c0-4.47-2.47-7.51-6.88-7.51-3.6,0-6.85,3.07-6.85,7.57,0,4.85,3.37,7.65,7.21,7.65a6.48,6.48,0,0,0,6.43-4.52l-2.41-.84a3.91,3.91,0,0,1-4,2.89,4.26,4.26,0,0,1-4.32-4.35H105A6.18,6.18,0,0,0,105.09,1262.14Zm-10.75-1.37a3.85,3.85,0,0,1,3.9-3.66,3.6,3.6,0,0,1,3.93,3.66Z" transform="translate(0 0.63)"/><path class="cls-4" d="M108.92,1255.08v14.33h2.8v-8.28c0-2.18,1.13-3.94,3.33-3.94,2.51,0,3.34,1.61,3.34,3.61v8.61h2.8v-9.09c0-3.19-1.7-5.66-5.12-5.66a4.92,4.92,0,0,0-4.41,2.47v-2.05Z" transform="translate(0 0.63)"/><path class="cls-4" d="M127,1250.55v2.32a2,2,0,0,1-2.2,2.21H124v2.53h2.74v7.86a3.71,3.71,0,0,0,4,4.08,6.19,6.19,0,0,0,1.91-.26v-2.39a5.69,5.69,0,0,1-1.1.12c-1.46,0-2-.65-2-2v-7.45h3.1v-2.53h-3.1v-4.53Z" transform="translate(0 0.63)"/><path class="cls-4" d="M143.2,1261.75v1.37c0,4.05,2.44,6.73,6.58,6.73,3.93,0,6.34-3.07,6.34-6.76v-14.8h-2.91v15c0,2.44-1.31,3.84-3.46,3.84s-3.63-1.25-3.63-4.05v-2Z" transform="translate(0 0.63)"/><path class="cls-4" d="M167.37,1254.63a7.23,7.23,0,0,0-7.33,7.6c0,4.38,3,7.62,7.33,7.62s7.33-3.24,7.33-7.62A7.23,7.23,0,0,0,167.37,1254.63Zm0,12.72c-2.38,0-4.47-1.79-4.47-5.12s2.09-5.1,4.47-5.1,4.47,1.79,4.47,5.1S169.75,1267.35,167.37,1267.35Z" transform="translate(0 0.63)"/><path class="cls-4" d="M178.43,1247.84v21.57h2.77v-2.09a5.11,5.11,0,0,0,4.65,2.47c4.26,0,6.67-3.36,6.67-7.62s-2.23-7.51-6.58-7.51a5.22,5.22,0,0,0-4.74,2.45v-9.27Zm7,9.29c2.59,0,4.23,1.94,4.23,5s-1.67,5.12-4.23,5.12-4.26-2-4.26-5.12S183,1257.13,185.43,1257.13Z" transform="translate(0 0.63)"/><polygon class="cls-4" points="202.64 1251.63 209.7 1251.63 209.7 1270.04 212.62 1270.04 212.62 1251.63 219.68 1251.63 219.68 1248.92 202.64 1248.92 202.64 1251.63"/><path class="cls-4" d="M226.42,1249.66a2,2,0,1,0-4,0,2,2,0,0,0,4,0Z" transform="translate(0 0.63)"/><rect class="cls-4" x="223.02" y="1255.71" width="2.77" height="14.33"/><path class="cls-4" d="M231.84,1250.55v2.32a2,2,0,0,1-2.2,2.21h-.78v2.53h2.74v7.86a3.71,3.71,0,0,0,4,4.08,6.19,6.19,0,0,0,1.91-.26v-2.39a5.69,5.69,0,0,1-1.1.12c-1.46,0-2-.65-2-2v-7.45h3.1v-2.53h-3.1v-4.53Z" transform="translate(0 0.63)"/><rect class="cls-4" x="241.17" y="1248.48" width="2.8" height="21.56"/><path class="cls-4" d="M261.46,1262.14c0-4.47-2.48-7.51-6.88-7.51-3.61,0-6.85,3.07-6.85,7.57,0,4.85,3.36,7.65,7.2,7.65a6.5,6.5,0,0,0,6.44-4.52l-2.41-.84a3.91,3.91,0,0,1-4,2.89,4.24,4.24,0,0,1-4.31-4.35H261.4A6.18,6.18,0,0,0,261.46,1262.14Zm-10.75-1.37a3.84,3.84,0,0,1,3.9-3.66,3.6,3.6,0,0,1,3.93,3.66Z" transform="translate(0 0.63)"/><path class="cls-4" d="M37.46,1434.08l-8.4,21.12h3.13l2.24-5.9h9.35l2.29,5.9h3.16l-8.4-21.12Zm-2,12.51,3.6-9.47,3.67,9.47Z" transform="translate(0 0.63)"/><path class="cls-4" d="M59.76,1440.46A5.24,5.24,0,0,0,55,1442.9v-9.26H52.25v21.56H55v-2.08a5.13,5.13,0,0,0,4.65,2.47c4.26,0,6.67-3.37,6.67-7.63S64.11,1440.46,59.76,1440.46Zm-.51,12.63c-2.47,0-4.26-2-4.26-5.13s1.79-5,4.26-5,4.23,1.93,4.23,5S61.81,1453.09,59.25,1453.09Z" transform="translate(0 0.63)"/><path class="cls-4" d="M76.54,1440.43a7.22,7.22,0,0,0-7.33,7.59c0,4.38,3,7.63,7.33,7.63s7.33-3.25,7.33-7.63A7.22,7.22,0,0,0,76.54,1440.43Zm0,12.72c-2.38,0-4.47-1.79-4.47-5.13s2.09-5.09,4.47-5.09S81,1444.72,81,1448,78.92,1453.15,76.54,1453.15Z" transform="translate(0 0.63)"/><path class="cls-4" d="M99.72,1440.87h-2.8v8.64c0,2.18-1.13,3.67-3.39,3.67s-3.25-1.73-3.25-3.7v-8.61h-2.8v9c0,3.25,2,5.75,5.36,5.75a4.68,4.68,0,0,0,4.23-2.18,12.61,12.61,0,0,0,.12,1.73h2.68a23.84,23.84,0,0,1-.15-2.65Z" transform="translate(0 0.63)"/><path class="cls-4" d="M108.36,1436.35h-2.57v2.32a2,2,0,0,1-2.2,2.2h-.77v2.54h2.74v7.86a3.72,3.72,0,0,0,4,4.08,6.15,6.15,0,0,0,1.91-.27v-2.38a5.71,5.71,0,0,1-1.11.12c-1.46,0-2-.66-2-2v-7.44h3.1v-2.54h-3.1Z" transform="translate(0 0.63)"/><polygon class="cls-4" points="136.2 1434.72 130.72 1444.13 125.24 1434.72 121.73 1434.72 129.17 1446.81 129.17 1455.84 132.09 1455.84 132.09 1446.81 139.54 1434.72 136.2 1434.72"/><path class="cls-4" d="M146.29,1440.43A7.22,7.22,0,0,0,139,1448c0,4.38,3,7.63,7.32,7.63s7.33-3.25,7.33-7.63A7.22,7.22,0,0,0,146.29,1440.43Zm0,12.72c-2.38,0-4.46-1.79-4.46-5.13s2.08-5.09,4.46-5.09,4.47,1.79,4.47,5.09S148.68,1453.15,146.29,1453.15Z" transform="translate(0 0.63)"/><path class="cls-4" d="M169.47,1440.87h-2.8v8.64c0,2.18-1.13,3.67-3.39,3.67s-3.25-1.73-3.25-3.7v-8.61h-2.8v9c0,3.25,2,5.75,5.36,5.75a4.67,4.67,0,0,0,4.23-2.18,12.61,12.61,0,0,0,.12,1.73h2.68a23.84,23.84,0,0,1-.15-2.65Z" transform="translate(0 0.63)"/><path class="cls-2" d="M632.5,1475.63H42.5A42.55,42.55,0,0,1,0,1433.13V41.87A42.55,42.55,0,0,1,42.5-.63h590A42.55,42.55,0,0,1,675,41.87V1433.13A42.55,42.55,0,0,1,632.5,1475.63ZM42.5,4.37A37.54,37.54,0,0,0,5,41.87V1433.13a37.54,37.54,0,0,0,37.5,37.5h590a37.54,37.54,0,0,0,37.5-37.5V41.87a37.54,37.54,0,0,0-37.5-37.5Z" transform="translate(0 0.63)"/></svg>