<svg id="Layer_1" data-name="Layer 1" xmlns="http://www.w3.org/2000/svg" viewBox="0 0 1024 1024"><defs><style>.cls-1{fill:#1f1f1f;}.cls-2{fill:#fff;}</style></defs><rect class="cls-1" width="1024" height="1024"/><path class="cls-2" d="M847.8,164.71H740.47l-1.37,7.23c-17.27,90.85-43.77,173-78.83,244.41C598.92,344.78,529.08,299.25,455.07,282V164.71H349.39V277.39C238,295.94,152.75,394.51,152.75,513v8.88h.16c4.17,114.5,87.93,208.6,196.47,226.69V859H455.07V744c74-17.23,143.84-62.75,205.2-134.31C695,680.42,721.36,761.8,738.65,851.79L740,859H847.39l-1.85-10.44C823,721.77,782.54,605.88,728.41,513,782.9,419.51,823.51,302.84,846,175.14ZM349.39,639.86C300.83,624,258.44,578.4,258.44,513S300.85,402,349.39,386.13Zm105.68-247.8C507.35,411,557.32,451.86,602.32,513c-45,61.14-95,102-147.25,120.94Z"/></svg>