<svg id="Layer_1" data-name="Layer 1" xmlns="http://www.w3.org/2000/svg" viewBox="0 0 823.12 249.84"><defs><style>.cls-1{fill:#fff;}</style></defs><path class="cls-1" d="M478.12,259.08H446.2l-.4,2.15c-5.14,27-13,51.44-23.44,72.68-18.25-21.29-39-34.82-61-40V259.08H329.91v33.5c-33.12,5.52-58.47,34.83-58.47,70.07v2.65h.05c1.24,34,26.14,62,58.42,67.41v32.82h31.43v-34.2c22-5.12,42.77-18.66,61-39.94,10.34,21,18.17,45.24,23.31,72l.41,2.14H478l-.55-3.1c-6.7-37.7-18.74-72.16-34.83-99.78,16.2-27.8,28.28-62.5,34.95-100.47ZM329.91,400.37a39.84,39.84,0,0,1,0-75.45Zm31.43-73.69c15.54,5.64,30.4,17.79,43.78,36-13.38,18.18-28.24,30.32-43.78,36Z" transform="translate(-271.44 -259.08)"/><path class="cls-1" d="M546.74,341.28c-29.8,0-57.42,24.71-57.42,62,0,40,28.35,63.23,60.33,63.23,28.34,0,47-16.71,53.29-37.3l-23.74-7.51c-3.87,11.63-12.6,20.59-29.55,20.59-17.45,0-31.5-12.84-32.22-30.77h86.24a41.63,41.63,0,0,0,.73-9C604.4,365.26,583.08,341.28,546.74,341.28Zm-28.59,49.66A28.32,28.32,0,0,1,547,364.78c19.38,0,28.59,12.35,29.07,26.16Z" transform="translate(-271.44 -259.08)"/><path class="cls-1" d="M676.06,341.28c-29.8,0-57.42,24.71-57.42,62,0,40,28.35,63.23,60.32,63.23,28.35,0,47-16.71,53.3-37.3l-23.74-7.51c-3.88,11.63-12.6,20.59-29.56,20.59-17.44,0-31.49-12.84-32.22-30.77H733a42,42,0,0,0,.72-9C733.71,365.26,712.4,341.28,676.06,341.28Zm-28.59,49.66a28.32,28.32,0,0,1,28.83-26.16c19.38,0,28.59,12.35,29.07,26.16Z" transform="translate(-271.44 -259.08)"/><path class="cls-1" d="M820.23,342.25c-18.17,0-31.74,8.47-37.55,18.65v-16H755.54v164H783.4V449.57c6.06,9,18.9,16.23,35.86,16.23,33.91,0,55.47-26.65,55.47-62C874.73,368.89,855.11,342.25,820.23,342.25Zm-5.33,98.6c-18.42,0-31.74-14.54-31.74-37.07,0-22,13.32-36.58,31.74-36.58,18.89,0,31.73,14.53,31.73,36.58C846.63,426.31,833.55,440.85,814.9,440.85Z" transform="translate(-271.44 -259.08)"/><path class="cls-1" d="M946,341.28c-29.8,0-57.41,24.71-57.41,62,0,40,28.34,63.23,60.32,63.23,28.34,0,47-16.71,53.3-37.3l-23.75-7.51c-3.87,11.63-12.59,20.59-29.55,20.59-17.44,0-31.49-12.84-32.22-30.77H1003a40.92,40.92,0,0,0,.73-9C1003.69,365.26,982.37,341.28,946,341.28Zm-28.58,49.66a28.31,28.31,0,0,1,28.82-26.16c19.39,0,28.59,12.35,29.08,26.16Z" transform="translate(-271.44 -259.08)"/><path class="cls-1" d="M1087.05,343.46c-15.5,0-28.59,7.51-34.16,20.35v-18.9h-27.37v118h28.1v-56.2c0-22.05,9.93-34.65,31.74-34.65a61.94,61.94,0,0,1,9.2.73V344.18A40.61,40.61,0,0,0,1087.05,343.46Z" transform="translate(-271.44 -259.08)"/></svg>