<svg id="Layer_1" data-name="Layer 1" xmlns="http://www.w3.org/2000/svg" viewBox="0 0 251.09 250.82"><defs><style>.cls-1{fill:#1f1f1f;}</style></defs><path class="cls-1" d="M463.05,585.93H424.27l-.49,2.61C417.54,621.36,408,651,395.3,676.83c-22.16-25.85-47.39-42.3-74.13-48.52V585.93H283v40.7c-40.23,6.7-71,42.32-71,85.13V715h0c1.51,41.36,31.77,75.36,71,81.9v39.88h38.18V795.19c26.74-6.22,52-22.67,74.13-48.52,12.55,25.56,22.07,55,28.32,87.47l.5,2.61H462.9l-.67-3.77c-8.14-45.81-22.76-87.67-42.31-121.23,19.68-33.77,34.35-75.92,42.46-122ZM283,757.58a48.39,48.39,0,0,1,0-91.66Zm38.18-89.52c18.88,6.85,36.94,21.61,53.19,43.69-16.25,22.09-34.31,36.85-53.19,43.69Z" transform="translate(-211.95 -585.93)"/></svg>