<?xml version="1.0" encoding="UTF-8"?><svg id="Layer_1" xmlns="http://www.w3.org/2000/svg" viewBox="0 0 29.23 30"><defs><style>.cls-1{fill:#fff;stroke-width:0px;}</style></defs><path class="cls-1" d="m17.35,30h-5.51c-.95,0-1.76-.7-1.89-1.63l-.42-2.97c-.44-.22-.9-.48-1.35-.79l-2.8,1.11c-.9.38-1.97,0-2.42-.88L.19,20.01c-.39-.91-.12-1.9.64-2.41l2.31-1.79c-.02-.27-.03-.53-.03-.8s.01-.54.03-.8l-2.38-1.84c-.81-.67-.99-1.76-.46-2.56l2.69-4.69c.58-.87,1.55-1.17,2.41-.8l2.76,1.1c.45-.32.91-.59,1.37-.81l.42-2.95c.13-.93.94-1.63,1.89-1.63h5.56c.96,0,1.75.69,1.89,1.63l.42,2.98c.44.22.9.48,1.35.79l2.8-1.11c.83-.35,1.8-.05,2.34.75l2.84,4.96c.39.91.13,1.91-.64,2.42l-2.31,1.79c.02.26.04.52.04.81s-.01.55-.03.81l2.34,1.84c.74.61.94,1.6.53,2.43l-2.77,4.82c-.58.87-1.55,1.17-2.41.81l-2.76-1.1c-.45.32-.9.59-1.37.81l-.42,2.95c-.14.95-.93,1.63-1.89,1.63Zm-4.94-1.98h0s0,0,0,0Zm-.07-.5h4.52l.55-3.85.68-.26c.67-.26,1.32-.65,1.98-1.18l.56-.45,3.67,1.46,2.25-3.92-3.06-2.41.08-.69c.04-.38.09-.81.09-1.23,0-.39-.04-.74-.08-1.12l-.08-.81,3.1-2.4-2.25-3.91-3.67,1.46-.56-.45c-.65-.52-1.41-.9-2.06-1.21l-.61-.28-.54-3.79h-4.57l-.55,3.85-.68.26c-.67.26-1.32.64-1.98,1.18l-.56.45-3.67-1.46-2.25,3.91,3.11,2.4-.08.69c-.04.4-.09.83-.09,1.23s.04.76.08,1.15l.07.69-.53.52-2.55,1.98,2.25,3.91,3.67-1.46.56.45c.64.52,1.4.9,2.06,1.21l.61.28.54,3.79Zm-7.22-3.9l.03.05s-.02-.03-.03-.05Zm-.66-.2h-.03s.03,0,.03,0Zm20.26,0h.02s-.01,0-.02,0Zm-22.39-3.83l-.05.04s.03-.02.05-.04Zm.11-8.53l-.03.05s.02-.03.03-.05Zm24.53-.66s-.03.02-.05.04l.05-.04ZM4.46,6.59s.01,0,.02,0h-.02Zm20.36-.01h-.03s.02,0,.03,0ZM12.41,1.98h0s0,0,0,0Z"/><path class="cls-1" d="m14.58,19.89c-2.7,0-4.89-2.19-4.89-4.89s2.19-4.89,4.89-4.89,4.89,2.19,4.89,4.89-2.19,4.89-4.89,4.89Zm0-7.3c-1.33,0-2.41,1.08-2.41,2.41s1.08,2.41,2.41,2.41,2.41-1.08,2.41-2.41-1.08-2.41-2.41-2.41Z"/></svg>