<?xml version="1.0" encoding="utf-8"?>
<!-- Generator: Adobe Illustrator 27.8.1, SVG Export Plug-In . SVG Version: 6.00 Build 0)  -->
<svg version="1.1" id="Layer_1" xmlns="http://www.w3.org/2000/svg" xmlns:xlink="http://www.w3.org/1999/xlink" x="0px" y="0px"
	 viewBox="0 0 600 500" style="enable-background:new 0 0 600 500;" xml:space="preserve">
<style type="text/css">
	.st0{fill:#FFFFFF;}
</style>
<path class="st0" d="M64.8,263.1h108.5l-14.7,21.8c-2.1,3.1-1.3,7.3,1.8,9.4c3.1,2.1,7.3,1.3,9.4-1.8l68.8-102.4
	c0.2-0.3,0.4-0.7,0.6-1.1L284.6,86c1.2-2.8,4-4.6,7.1-4.6c7.3,0,14.1,3.3,18.7,9c4.5,5.7,6.2,13.1,4.5,20.3l-21.2,89.7
	c-0.5,2,0,4.1,1.3,5.8c1.3,1.6,3.2,2.6,5.3,2.6h52.7c-3.3,4.9-5.3,10.9-5.3,17.2c0,7,2.4,13.5,6.3,18.6
	c-12.5,3.9-21.6,15.6-21.6,29.4c0,7.5,2.7,14.3,7.1,19.7c-11.1,4.7-18.9,15.6-18.9,28.4c0,7.4,2.6,14.2,7,19.5
	c-11.3,4.6-19.2,15.6-19.2,28.5c0,6.4,2,12.3,5.3,17.2h-96.5c18.9-11.3,33.8-29,41.3-50.8l11.1-32.2c1.2-3.5-0.7-7.4-4.2-8.6
	c-0.7-0.3-1.5-0.4-2.2-0.4c-2.8,0-5.4,1.8-6.4,4.6l-11.1,32.2c-11.4,33-42.6,55.3-77.6,55.3h-13.2H85c-3.8,0-6.8,3-6.8,6.8
	c0,3.7,3,6.8,6.8,6.8h66.7c42.5,46.7,102.8,73.4,165.9,73.4C441.3,474.3,542,373.7,542,250c0-123.7-100.6-224.3-224.3-224.3
	c-123.5,0-224.1,100.4-224.3,223.9H64.8c-3.8,0-6.8,3-6.8,6.8C58,260.1,61.1,263.1,64.8,263.1z M443.2,243.1h-12.5h-52.4
	c-9.5,0-17.2-7.7-17.2-17.2c0-9.5,7.7-17.2,17.2-17.2h64.8c9.5,0,17.2,7.7,17.2,17.2C460.5,235.4,452.7,243.1,443.2,243.1z
	 M363.1,256.7h15.3h52.4c9.5,0,17.2,7.7,17.2,17.2s-7.7,17.2-17.2,17.2h-20.1h-47.6c-9.5,0-17.2-7.7-17.2-17.2
	S353.6,256.7,363.1,256.7z M351.3,304.8h11.8h47.6c9.5,0,17.2,7.7,17.2,17.2s-7.7,17.2-17.2,17.2h-26h-33.3
	c-9.5,0-17.2-7.7-17.2-17.2S341.8,304.8,351.3,304.8z M321.9,370.1c0-9.5,7.7-17.2,17.2-17.2h12.2h33.3c9.5,0,17.2,7.7,17.2,17.2
	c0,9.5-7.7,17.2-17.2,17.2h-15.8h-29.8C329.6,387.3,321.9,379.6,321.9,370.1z M317.7,39.3c116.2,0,210.7,94.5,210.7,210.7
	c0,116.2-94.5,210.7-210.7,210.7c-55.1,0-107.9-21.6-147.1-59.8h168.5h29.8h15.8c17,0,30.8-13.8,30.8-30.8c0-6.4-2-12.3-5.3-17.2
	h0.5c17,0,30.8-13.8,30.8-30.8c0-6.6-2.1-12.7-5.6-17.7c14.6-2.4,25.7-15.1,25.7-30.4c0-7.4-2.6-14.1-6.9-19.5
	c11.4-4.5,19.4-15.6,19.4-28.6c0-17-13.8-30.8-30.8-30.8h-34.4c0,0,0,0,0,0H308.8l19.2-81.3c2.6-11.2,0.1-22.8-7.1-31.8
	s-17.8-14.2-29.3-14.2c-8.5,0-16.1,5-19.5,12.7l-45,102.6l-44.7,66.4h-75.5C107.2,133.6,201.6,39.3,317.7,39.3z"/>
</svg>
