<svg id="Layer_1" data-name="Layer 1" xmlns="http://www.w3.org/2000/svg" xmlns:xlink="http://www.w3.org/1999/xlink" viewBox="0 0 675 1567.8"><defs><style>.cls-1{fill:none;}.cls-2{clip-path:url(#clip-path);}.cls-3{fill:#1f1f1f;}.cls-4{fill:#fff;}.cls-5{fill:#333;}.cls-6{fill:#999;}</style><clipPath id="clip-path" transform="translate(0 0.63)"><rect class="cls-1" x="2.5" y="1.87" width="670" height="1471.27" rx="40"/></clipPath></defs><g class="cls-2"><rect class="cls-3" x="2.5" y="2.5" width="670" height="1565.3"/><rect class="cls-4" x="32.48" y="860.15" width="610.03" height="3"/><rect class="cls-5" x="2.5" y="203.65" width="670" height="439.48"/><path class="cls-4" d="M203.14,120h-24l-5.29,14.25H163.67l22.1-56.77H196.9L219,134.24H208.51Zm-20.66-8.89h17.3l-8.65-23.22Z" transform="translate(0 0.63)"/><path class="cls-4" d="M226.6,134.24V77.47h20.1c15.46,0,27.63,10.25,27.63,28.51S262,134.24,246.62,134.24Zm19.7-8.8c9.85,0,18-6.33,18-19.46,0-13.3-8.09-19.7-17.94-19.7H236.21v39.16Z" transform="translate(0 0.63)"/><path class="cls-4" d="M284.41,134.24V77.47h20.1c15.46,0,27.63,10.25,27.63,28.51s-12.33,28.26-27.71,28.26Zm19.7-8.8c9.85,0,18-6.33,18-19.46,0-13.3-8.09-19.7-17.94-19.7H294v39.16Z" transform="translate(0 0.63)"/><path class="cls-4" d="M356.88,113.42l9.37-1.92v5.29c0,6.64,3.76,9.61,8.72,9.61,5.13,0,8.33-3.45,8.33-9.21V77.47h9.61V117c0,10.09-7,18.5-17.86,18.5-11.13,0-18.17-7.29-18.17-18.34Z" transform="translate(0 0.63)"/><path class="cls-4" d="M431.27,76.27c14.89,0,28.9,11,28.9,29.55s-14,29.63-28.9,29.63-28.83-11-28.83-29.63S416.37,76.27,431.27,76.27Zm0,50.05c9.61,0,19.06-6.81,19.06-20.5s-9.45-20.5-19.06-20.5-19,6.8-19,20.5S421.74,126.32,431.27,126.32Z" transform="translate(0 0.63)"/><path class="cls-4" d="M489.88,77.47c10.89,0,17.29,6.41,17.29,15.29a12.65,12.65,0,0,1-8.4,12.26,13.59,13.59,0,0,1,10.17,13.53c0,9.13-7.05,15.69-17.62,15.69h-21V77.47Zm-1.28,24c5.6,0,9-3.2,9-7.93s-3.37-7.92-9.21-7.92h-8.49v15.85Zm1,24.59c5.76,0,9.53-3.13,9.53-8.17,0-4.89-3.29-8.33-9.21-8.33H479.87v16.5Z" transform="translate(0 0.63)"/><rect class="cls-4" x="72.74" y="100.66" width="29.1" height="3" transform="translate(-46.67 92.28) rotate(-45)"/><polygon class="cls-4" points="99.77 114.59 75.5 114.59 75.5 90.32 78.5 90.32 78.5 111.59 99.77 111.59 99.77 114.59"/><path class="cls-4" d="M48.19,817.6h-6v19H34V788.48H52.47c9.3,0,15.07,6.44,15.07,14.59a13.57,13.57,0,0,1-10.86,13.71l10.86,19.83H58.31ZM51,810.4c5,0,8.29-2.92,8.29-7.33s-3.26-7.4-8.29-7.4H42.22V810.4Z" transform="translate(0 0.63)"/><path class="cls-4" d="M75,836.61V788.48h29.73v7.6H83.14v12.76h19.55v7.4H83.14V829h21.58v7.61Z" transform="translate(0 0.63)"/><path class="cls-4" d="M142.22,824.52H121.85l-4.48,12.09h-8.62l18.74-48.13h9.43l18.74,48.13h-8.89ZM124.71,817h14.66L132,797.3Z" transform="translate(0 0.63)"/><path class="cls-4" d="M155.56,812.57c0-15.68,11.75-25.11,24.24-25.11,12.22,0,19.48,7.19,21.66,15.61l-7.68,2.58c-1.42-5.84-5.9-10.52-14-10.52s-15.89,5.77-15.89,17.44c0,11.27,7.74,17.25,16,17.25a14.36,14.36,0,0,0,14.32-10.59l7.47,2.44c-2.17,8.15-9.5,16-21.79,16C166.9,837.63,155.56,828.26,155.56,812.57Z" transform="translate(0 0.63)"/><path class="cls-4" d="M227.31,796.15v40.46h-8.14V796.15H203.55v-7.67H243v7.67Z" transform="translate(0 0.63)"/><path class="cls-4" d="M266.49,836.61V788.48h17c13.1,0,23.42,8.68,23.42,24.16s-10.46,24-23.49,24Zm16.7-7.47c8.35,0,15.27-5.36,15.27-16.5s-6.86-16.7-15.21-16.7h-8.62v33.2Z" transform="translate(0 0.63)"/><path class="cls-4" d="M314.34,836.61V788.48h29.73v7.6H322.48v12.76H342v7.4H322.48V829h21.59v7.61Z" transform="translate(0 0.63)"/><path class="cls-4" d="M383.88,788.48h8.62l-18.2,48.13H366L348.1,788.48h8.82L370.37,826Z" transform="translate(0 0.63)"/><path class="cls-4" d="M397.36,836.61V788.48H427.1v7.6H405.51v12.76h19.55v7.4H405.51V829H427.1v7.61Z" transform="translate(0 0.63)"/><path class="cls-4" d="M435.4,836.61V788.48h8.14v40.39H465.6v7.74Z" transform="translate(0 0.63)"/><path class="cls-4" d="M491.41,787.46c12.63,0,24.51,9.3,24.51,25S504,837.63,491.41,837.63,467,828.32,467,812.51,478.78,787.46,491.41,787.46Zm0,42.43c8.15,0,16.16-5.77,16.16-17.38s-8-17.38-16.16-17.38-16.09,5.77-16.09,17.38S483.33,829.89,491.41,829.89Z" transform="translate(0 0.63)"/><path class="cls-4" d="M531.38,817.8v18.81h-8.15V788.48h17.86c9.23,0,15.34,6.24,15.34,14.66s-6.11,14.66-15.34,14.66Zm8.49-7.19c5.16,0,8.28-2.85,8.28-7.4s-3.12-7.54-8.28-7.54h-8.49v14.94Z" transform="translate(0 0.63)"/><path class="cls-4" d="M561.85,836.61V788.48h29.74v7.6H570v12.76h19.55v7.4H570V829h21.59v7.61Z" transform="translate(0 0.63)"/><path class="cls-4" d="M614.07,817.6h-6v19h-8.22V788.48h18.47c9.3,0,15.07,6.44,15.07,14.59a13.57,13.57,0,0,1-10.86,13.71l10.86,19.83h-9.23Zm2.79-7.2c5,0,8.28-2.92,8.28-7.33s-3.26-7.4-8.28-7.4H608.1V810.4Z" transform="translate(0 0.63)"/><path class="cls-6" d="M29.36,742.39l2.92-.66v2c0,2.8,1.52,4,3.64,4s3.45-1.4,3.45-3.84v-15h2.92v14.8c0,3.69-2.41,6.76-6.34,6.76-4.15,0-6.59-2.68-6.59-6.73Z" transform="translate(0 0.63)"/><path class="cls-6" d="M60.86,742.87c0,4.37-3,7.62-7.32,7.62s-7.33-3.25-7.33-7.62a7.33,7.33,0,1,1,14.65,0Zm-2.86,0c0-3.31-2.08-5.1-4.46-5.1s-4.47,1.79-4.47,5.1S51.15,748,53.54,748,58,746.2,58,742.87Z" transform="translate(0 0.63)"/><path class="cls-6" d="M64.6,750V728.48h2.77v9.26a5.21,5.21,0,0,1,4.73-2.44c4.35,0,6.58,3.33,6.58,7.5s-2.41,7.63-6.67,7.63A5.1,5.1,0,0,1,67.37,748V750Zm7-12.27c-2.47,0-4.25,1.94-4.25,5s1.78,5.13,4.25,5.13,4.23-2,4.23-5.13S74.19,737.77,71.59,737.77Z" transform="translate(0 0.63)"/><path class="cls-6" d="M98.78,731.64V750H95.86v-18.4H88.8v-2.71h17v2.71Z" transform="translate(0 0.63)"/><path class="cls-6" d="M110.56,728.27a2,2,0,1,1-2,2A2,2,0,0,1,110.56,728.27ZM109.19,750V735.72H112V750Z" transform="translate(0 0.63)"/><path class="cls-6" d="M120.57,735.72h3.09v2.53h-3.09v7.44c0,1.31.53,2,2,2a5.51,5.51,0,0,0,1.1-.12v2.38a6,6,0,0,1-1.9.27,3.72,3.72,0,0,1-4-4.08v-7.86H115v-2.53h.77a2,2,0,0,0,2.2-2.21v-2.32h2.57Z" transform="translate(0 0.63)"/><path class="cls-6" d="M127.34,750V728.48h2.8V750Z" transform="translate(0 0.63)"/><path class="cls-6" d="M147.53,746a6.49,6.49,0,0,1-6.43,4.53c-3.84,0-7.21-2.8-7.21-7.66,0-4.49,3.25-7.56,6.85-7.56,4.41,0,6.88,3,6.88,7.51a6.29,6.29,0,0,1-.06.89H136.78A4.26,4.26,0,0,0,141.1,748a3.91,3.91,0,0,0,4-2.89Zm-2.83-4.55a3.61,3.61,0,0,0-3.93-3.67,3.86,3.86,0,0,0-3.9,3.67Z" transform="translate(0 0.63)"/><rect class="cls-4" x="32.48" y="1042.31" width="610.03" height="3"/><path class="cls-4" d="M78.88,1018.77V983.33l-15,35.44H56.81L42,983.47v35.3H34V970.63H44.86l15.62,36.73,15.41-36.73H87v48.14Z" transform="translate(0 0.63)"/><path class="cls-4" d="M97.1,1018.77V970.63h8.28v48.14Z" transform="translate(0 0.63)"/><path class="cls-4" d="M112.64,994.73c0-15.68,11.75-25.11,24.24-25.11,12.22,0,19.48,7.19,21.65,15.61l-7.67,2.58c-1.42-5.84-5.9-10.52-14-10.52S121,983.06,121,994.73c0,11.27,7.74,17.25,16,17.25a14.37,14.37,0,0,0,14.32-10.59l7.47,2.44c-2.17,8.15-9.51,15.95-21.79,15.95C124,1019.78,112.64,1010.42,112.64,994.73Z" transform="translate(0 0.63)"/><path class="cls-4" d="M179.77,999.76h-6v19h-8.21V970.63h18.46c9.3,0,15.07,6.45,15.07,14.6a13.57,13.57,0,0,1-10.86,13.71l10.86,19.83h-9.23Zm2.79-7.2c5,0,8.28-2.92,8.28-7.33s-3.26-7.4-8.28-7.4H173.8v14.73Z" transform="translate(0 0.63)"/><path class="cls-4" d="M227.71,969.62c12.63,0,24.51,9.3,24.51,25s-11.88,25.11-24.51,25.11-24.44-9.3-24.44-25.11S215.08,969.62,227.71,969.62Zm0,42.43c8.15,0,16.16-5.78,16.16-17.38s-8-17.38-16.16-17.38-16.09,5.77-16.09,17.38S219.63,1012.05,227.71,1012.05Z" transform="translate(0 0.63)"/><path class="cls-4" d="M283.64,984.21c-.47-3-3-7.4-9.43-7.4-4.89,0-8.29,3.26-8.29,6.93,0,3,1.9,5.36,5.64,6.17l6.92,1.43c8.49,1.7,13,7.06,13,13.85,0,7.47-6,14.59-17,14.59-12.22,0-17.86-7.87-18.6-14.8l7.6-2.17c.48,5,4.07,9.64,11,9.64,5.77,0,8.75-2.92,8.75-6.65,0-3.12-2.3-5.64-6.44-6.52L270,997.86c-7.33-1.5-12.22-6.32-12.22-13.51,0-8.08,7.4-14.73,16.36-14.73,11.33,0,15.75,6.92,16.83,12.28Z" transform="translate(0 0.63)"/><path class="cls-4" d="M320,969.62c12.63,0,24.51,9.3,24.51,25s-11.88,25.11-24.51,25.11-24.44-9.3-24.44-25.11S307.33,969.62,320,969.62Zm0,42.43c8.15,0,16.16-5.78,16.16-17.38s-8-17.38-16.16-17.38-16.09,5.77-16.09,17.38S311.87,1012.05,320,1012.05Z" transform="translate(0 0.63)"/><path class="cls-4" d="M351.77,1018.77V970.63h29.94v7.68H359.92v13.5h19.55v7.54H359.92v19.42Z" transform="translate(0 0.63)"/><path class="cls-4" d="M408.73,978.31v40.46h-8.15V978.31H385v-7.68h39.44v7.68Z" transform="translate(0 0.63)"/><path class="cls-6" d="M30.11,921.63c0-7.06,5.24-11,10.48-11,4.83,0,8.22,2.62,9.29,6.7l-2.71.95c-.8-3.19-3.12-5-6.58-5-3.84,0-7.5,2.8-7.5,8.31s3.66,8.34,7.5,8.34a6.71,6.71,0,0,0,6.73-5.07l2.59,1a9.21,9.21,0,0,1-9.32,6.79C35.14,932.65,30.11,928.69,30.11,921.63Z" transform="translate(0 0.63)"/><path class="cls-6" d="M67.46,925c0,4.38-3,7.63-7.33,7.63s-7.32-3.25-7.32-7.63,3-7.59,7.32-7.59A7.22,7.22,0,0,1,67.46,925Zm-2.86,0c0-3.3-2.08-5.09-4.47-5.09s-4.46,1.79-4.46,5.09,2.08,5.13,4.46,5.13S64.6,928.36,64.6,925Z" transform="translate(0 0.63)"/><path class="cls-6" d="M71.19,932.2V917.88h2.69v1.9a4.93,4.93,0,0,1,4.34-2.32,4.46,4.46,0,0,1,4.29,2.71,5.14,5.14,0,0,1,4.8-2.71c2.5,0,4.94,1.69,4.94,5.45v9.29H89.48v-9c0-1.88-.92-3.28-3-3.28a3.34,3.34,0,0,0-3.3,3.6v8.67h-2.8v-9c0-1.85-.89-3.28-3-3.28A3.32,3.32,0,0,0,74,923.56v8.64Z" transform="translate(0 0.63)"/><path class="cls-6" d="M96.82,937.86v-20h2.71v2.23a5.27,5.27,0,0,1,4.79-2.56c4.29,0,6.59,3.3,6.59,7.47s-2.48,7.57-6.68,7.57a5.32,5.32,0,0,1-4.64-2.32v7.59Zm7-17.84c-2.56,0-4.26,2.14-4.26,5s1.7,5.07,4.26,5.07,4.23-2.12,4.23-5.07S106.44,920,103.82,920Z" transform="translate(0 0.63)"/><path class="cls-6" d="M118.14,924l3.87-.57c.86-.12,1.1-.56,1.1-1.07,0-1.4-.92-2.56-3.1-2.56a3,3,0,0,0-3.24,2.89l-2.68-.63c.29-2.74,2.77-4.64,5.86-4.64,4.29,0,6,2.44,6,5.24v7.18a13.37,13.37,0,0,0,.18,2.35h-2.74a10.37,10.37,0,0,1-.15-1.93,5.24,5.24,0,0,1-4.62,2.38,4.46,4.46,0,0,1-4.79-4.29C113.79,925.8,115.66,924.37,118.14,924Zm5,2v-.65l-4.38.65a2.14,2.14,0,0,0-2.08,2.15A2.17,2.17,0,0,0,119,930.3C121.26,930.3,123.11,929.19,123.11,926.06Z" transform="translate(0 0.63)"/><path class="cls-6" d="M133.18,932.2h-2.8V917.88h2.74v2a4.91,4.91,0,0,1,4.41-2.47c3.43,0,5.12,2.47,5.12,5.66v9.08h-2.8v-8.61c0-2-.83-3.6-3.33-3.6-2.21,0-3.34,1.76-3.34,3.93Z" transform="translate(0 0.63)"/><path class="cls-6" d="M147.32,938.19l3.57-7.57-6.16-12.74h3.21l4.47,9.88,4.29-9.88h3l-9.32,20.31Z" transform="translate(0 0.63)"/><path class="cls-6" d="M185.65,932.2,174.24,915V932.2h-2.92V911.08h3.9l10.54,16.21V911.08h2.92V932.2Z" transform="translate(0 0.63)"/><path class="cls-6" d="M197.41,924l3.87-.57c.86-.12,1.1-.56,1.1-1.07,0-1.4-.92-2.56-3.1-2.56A3,3,0,0,0,196,922.7l-2.68-.63c.29-2.74,2.77-4.64,5.86-4.64,4.29,0,6,2.44,6,5.24v7.18a13.37,13.37,0,0,0,.18,2.35h-2.74a10.37,10.37,0,0,1-.15-1.93,5.23,5.23,0,0,1-4.62,2.38,4.46,4.46,0,0,1-4.79-4.29C193.06,925.8,194.93,924.37,197.41,924Zm5,2v-.65l-4.38.65a2.14,2.14,0,0,0-2.08,2.15,2.17,2.17,0,0,0,2.32,2.09C200.53,930.3,202.38,929.19,202.38,926.06Z" transform="translate(0 0.63)"/><path class="cls-6" d="M209.65,932.2V917.88h2.68v1.9a4.94,4.94,0,0,1,4.35-2.32,4.46,4.46,0,0,1,4.29,2.71,5.14,5.14,0,0,1,4.8-2.71c2.5,0,4.94,1.69,4.94,5.45v9.29h-2.77v-9c0-1.88-.92-3.28-3-3.28a3.34,3.34,0,0,0-3.3,3.6v8.67h-2.8v-9c0-1.85-.9-3.28-3-3.28a3.32,3.32,0,0,0-3.34,3.63v8.64Z" transform="translate(0 0.63)"/><path class="cls-6" d="M247.94,928.12a6.51,6.51,0,0,1-6.44,4.53c-3.84,0-7.21-2.8-7.21-7.66,0-4.49,3.25-7.56,6.85-7.56,4.41,0,6.89,3,6.89,7.5a6.34,6.34,0,0,1-.06.9H237.18a4.26,4.26,0,0,0,4.32,4.35,3.89,3.89,0,0,0,4-2.89Zm-2.83-4.56a3.61,3.61,0,0,0-3.94-3.66,3.86,3.86,0,0,0-3.9,3.66Z" transform="translate(0 0.63)"/><path class="cls-6" d="M55.22,1093.27h3l-6,21.12h-3l-5.51-17.13-5.45,17.13H35.32l-6.11-21.12h3l4.65,16.53,5.3-16.53h3.07L50.66,1110Z" transform="translate(0 0.63)"/><path class="cls-6" d="M73.83,1107.21c0,4.37-3,7.62-7.32,7.62s-7.33-3.25-7.33-7.62a7.33,7.33,0,1,1,14.65,0Zm-2.86,0c0-3.31-2.08-5.1-4.46-5.1s-4.47,1.79-4.47,5.1,2.08,5.12,4.47,5.12S71,1110.54,71,1107.21Z" transform="translate(0 0.63)"/><path class="cls-6" d="M85.52,1102.89a8.66,8.66,0,0,0-1.22-.09c-2.35,0-3.93,1.25-3.93,4.41v7.18h-2.8v-14.33h2.74v2.5a4.49,4.49,0,0,1,4.29-2.74,5.28,5.28,0,0,1,.92.09Z" transform="translate(0 0.63)"/><path class="cls-6" d="M95.33,1106.1l6.23,8.29H98l-4.67-6.32-2,2v4.32H88.6v-21.57h2.77v13.58l6.2-6.34h3.87Z" transform="translate(0 0.63)"/><path class="cls-6" d="M124,1099a4.29,4.29,0,0,0-4.47-3.61c-2.38,0-4.08,1.55-4.08,3.52a3.07,3.07,0,0,0,2.71,3.07l3.16.68c3.51.77,5.48,3,5.48,5.93,0,3.27-2.8,6.25-7.3,6.25-5.09,0-7.5-3.27-7.89-6.28l2.8-.9a4.8,4.8,0,0,0,5.06,4.53c2.92,0,4.35-1.52,4.35-3.37,0-1.51-1-2.83-3.16-3.27l-3-.66c-3-.65-5.16-2.62-5.16-5.77,0-3.31,3.07-6.29,7-6.29,4.77,0,6.68,3,7.15,5.24Z" transform="translate(0 0.63)"/><path class="cls-6" d="M143.42,1110.31a6.49,6.49,0,0,1-6.43,4.52c-3.85,0-7.21-2.8-7.21-7.65,0-4.5,3.24-7.57,6.85-7.57,4.41,0,6.88,3,6.88,7.51a6.18,6.18,0,0,1-.06.89H132.67a4.25,4.25,0,0,0,4.32,4.35,3.91,3.91,0,0,0,4-2.89Zm-2.83-4.56a3.61,3.61,0,0,0-3.93-3.67,3.86,3.86,0,0,0-3.9,3.67Z" transform="translate(0 0.63)"/><path class="cls-6" d="M151.14,1100.06h3.1v2.53h-3.1V1110c0,1.31.53,2,2,2a5.71,5.71,0,0,0,1.11-.12v2.39a6.25,6.25,0,0,1-1.91.26,3.71,3.71,0,0,1-4-4.08v-7.86H145.6v-2.53h.77a2,2,0,0,0,2.21-2.21v-2.32h2.56Z" transform="translate(0 0.63)"/><path class="cls-6" d="M162.35,1100.06h3.1v2.53h-3.1V1110c0,1.31.54,2,2,2a5.6,5.6,0,0,0,1.1-.12v2.39a6.19,6.19,0,0,1-1.91.26,3.71,3.71,0,0,1-4-4.08v-7.86h-2.74v-2.53h.78a2,2,0,0,0,2.2-2.21v-2.32h2.56Z" transform="translate(0 0.63)"/><path class="cls-6" d="M170.27,1092.61a2,2,0,1,1-2,2A2,2,0,0,1,170.27,1092.61Zm-1.37,21.78v-14.33h2.77v14.33Z" transform="translate(0 0.63)"/><path class="cls-6" d="M179.17,1114.39h-2.8v-14.33h2.74v2a4.91,4.91,0,0,1,4.4-2.47c3.43,0,5.13,2.47,5.13,5.66v9.09h-2.8v-8.61c0-2-.84-3.61-3.34-3.61-2.2,0-3.33,1.76-3.33,3.93Z" transform="translate(0 0.63)"/><path class="cls-6" d="M194.91,1114.53a3.8,3.8,0,0,0,3.9,3.52c3,0,4.38-1.55,4.38-4.65v-2.05a4.78,4.78,0,0,1-4.38,2.35c-3.82,0-6.59-2.89-6.59-6.94,0-3.87,2.66-7,6.59-7,2.2,0,3.69.83,4.4,2.26v-2H206v13.25c0,3.64-1.79,7.18-7.18,7.18-3.58,0-6.26-2.26-6.62-5.33Zm8.39-7.77c0-2.77-1.66-4.59-4.08-4.59s-4.14,1.82-4.14,4.59,1.61,4.59,4.14,4.59S203.3,1109.53,203.3,1106.76Z" transform="translate(0 0.63)"/><rect class="cls-4" x="30.69" y="1152.58" width="196.37" height="83.4" rx="41.7"/><path class="cls-3" d="M76.71,1194.21H72.92v10.36H69.38v-25.34h9.54a7.34,7.34,0,0,1,7.76,7.54,7.1,7.1,0,0,1-6.15,7.19l6,10.61H82.5Zm1.57-3.15c2.86,0,4.79-1.68,4.79-4.29s-1.93-4.39-4.79-4.39H72.92v8.68Z" transform="translate(0 0.63)"/><path class="cls-3" d="M105.94,1199.67a7.8,7.8,0,0,1-7.72,5.44c-4.61,0-8.65-3.36-8.65-9.19,0-5.39,3.9-9.07,8.22-9.07,5.29,0,8.25,3.64,8.25,9a6.91,6.91,0,0,1-.07,1.07H93a5.1,5.1,0,0,0,5.18,5.22,4.68,4.68,0,0,0,4.82-3.47Zm-3.4-5.46a4.33,4.33,0,0,0-4.71-4.4,4.63,4.63,0,0,0-4.69,4.4Z" transform="translate(0 0.63)"/><path class="cls-3" d="M110.58,1204.57v-17.19h3.21v2.29a5.93,5.93,0,0,1,5.22-2.79,5.38,5.38,0,0,1,5.15,3.25,6.18,6.18,0,0,1,5.75-3.25c3,0,5.93,2,5.93,6.54v11.15h-3.32v-10.79c0-2.25-1.11-3.93-3.64-3.93a4,4,0,0,0-4,4.32v10.4h-3.36v-10.79c0-2.22-1.07-3.93-3.65-3.93-2.39,0-4,1.78-4,4.36v10.36Z" transform="translate(0 0.63)"/><path class="cls-3" d="M157.65,1196c0,5.25-3.65,9.15-8.79,9.15s-8.8-3.9-8.8-9.15,3.65-9.11,8.8-9.11S157.65,1190.74,157.65,1196Zm-3.43,0c0-4-2.51-6.11-5.36-6.11s-5.36,2.14-5.36,6.11,2.5,6.14,5.36,6.14S154.22,1200,154.22,1196Z" transform="translate(0 0.63)"/><path class="cls-3" d="M166.61,1187.38h3.72v3h-3.72v8.93c0,1.57.64,2.36,2.4,2.36a7,7,0,0,0,1.32-.14v2.86a7.68,7.68,0,0,1-2.29.32c-2.93,0-4.79-1.79-4.79-4.9v-9.43H160v-3h.93a2.41,2.41,0,0,0,2.65-2.64V1182h3.07Z" transform="translate(0 0.63)"/><path class="cls-3" d="M189.46,1199.67a7.8,7.8,0,0,1-7.72,5.44c-4.61,0-8.65-3.36-8.65-9.19,0-5.39,3.89-9.07,8.22-9.07,5.29,0,8.25,3.64,8.25,9a6.91,6.91,0,0,1-.07,1.07H176.56a5.1,5.1,0,0,0,5.18,5.22,4.68,4.68,0,0,0,4.82-3.47Zm-3.4-5.46a4.33,4.33,0,0,0-4.72-4.4,4.63,4.63,0,0,0-4.68,4.4Z" transform="translate(0 0.63)"/><path class="cls-4" d="M392.74,1157a36.7,36.7,0,1,1,0,73.4h-113a36.7,36.7,0,0,1,0-73.4h113m0-5h-113a41.7,41.7,0,0,0,0,83.4h113a41.7,41.7,0,1,0,0-83.4Z" transform="translate(0 0.63)"/><path class="cls-4" d="M300.5,1204.57v-11.26H287.56v11.26h-3.5v-25.34h3.5v10.83H300.5v-10.83H304v25.34Z" transform="translate(0 0.63)"/><path class="cls-4" d="M310.85,1211.75l4.29-9.07-7.4-15.3h3.86l5.36,11.87,5.15-11.87h3.61l-11.19,24.37Z" transform="translate(0 0.63)"/><path class="cls-4" d="M329.2,1204.57V1178.7h3.32v11.11a6.26,6.26,0,0,1,5.68-2.93c5.22,0,7.9,4,7.9,9s-2.89,9.15-8,9.15a6.13,6.13,0,0,1-5.58-3v2.5Zm8.4-14.72c-3,0-5.11,2.32-5.11,6s2.14,6.14,5.11,6.14,5.07-2.43,5.07-6.14S340.71,1189.85,337.6,1189.85Z" transform="translate(0 0.63)"/><path class="cls-4" d="M360.18,1190.78a11,11,0,0,0-1.47-.11c-2.82,0-4.72,1.5-4.72,5.29v8.61h-3.36v-17.19h3.29v3a5.39,5.39,0,0,1,5.15-3.28,7.28,7.28,0,0,1,1.11.1Z" transform="translate(0 0.63)"/><path class="cls-4" d="M365.46,1178.45a2.41,2.41,0,1,1-2.4,2.43A2.41,2.41,0,0,1,365.46,1178.45Zm-1.65,26.12v-17.19h3.33v17.19Z" transform="translate(0 0.63)"/><path class="cls-4" d="M385,1202a5.74,5.74,0,0,1-5.33,3.08c-5,0-8.14-4-8.14-9.12,0-4.86,3.29-9,8.14-9,3,0,4.69,1.5,5.26,2.89V1178.7h3.32v22.69a26.2,26.2,0,0,0,.18,3.18h-3.25a14.52,14.52,0,0,1-.18-2.32Zm-5,.11c3.07,0,5-2.68,5-6.22s-1.85-6-4.93-6-5.07,2.51-5.07,6S376.74,1202.07,380,1202.07Z" transform="translate(0 0.63)"/><path class="cls-4" d="M602.11,1157a36.7,36.7,0,1,1,0,73.4h-113a36.7,36.7,0,0,1,0-73.4h113m0-5h-113a41.7,41.7,0,0,0,0,83.4h113a41.7,41.7,0,1,0,0-83.4Z" transform="translate(0 0.63)"/><path class="cls-4" d="M509.05,1178.7c6.36,0,12.72,4.71,12.72,13.18s-6.36,13.23-12.72,13.23-12.73-4.76-12.73-13.23S502.68,1178.7,509.05,1178.7Zm0,23.19c4.71,0,9.14-3.4,9.14-10s-4.43-10-9.14-10-9.15,3.36-9.15,10S504.33,1201.89,509.05,1201.89Z" transform="translate(0 0.63)"/><path class="cls-4" d="M528.15,1184.49c0-3.83,2.54-5.9,5.65-5.9a4.28,4.28,0,0,1,2,.36v3a3.87,3.87,0,0,0-1.46-.22c-1.18,0-2.72.58-2.72,2.93v2.72h7.83v-2.89c0-3.83,2.53-5.9,5.64-5.9a4.24,4.24,0,0,1,2,.36v3a3.77,3.77,0,0,0-1.46-.22c-1.18,0-2.72.58-2.72,2.93v2.72h11.37v17.19H551v-14.15h-8v14.15h-3.46v-14.15h-7.83v14.15h-3.47v-14.15H525v-3h3.18Zm24.45-6.11a2.41,2.41,0,1,1-2.4,2.43A2.41,2.41,0,0,1,552.6,1178.38Z" transform="translate(0 0.63)"/><path class="cls-4" d="M562.13,1196c0,3.93,2.47,6,5.26,6a4.66,4.66,0,0,0,4.78-3.54l3,1.29a7.9,7.9,0,0,1-7.75,5.36c-5,0-8.69-3.93-8.69-9.15s3.76-9.11,8.65-9.11a7.48,7.48,0,0,1,7.65,5.46l-3,1.29a4.51,4.51,0,0,0-4.61-3.65C564.63,1190,562.13,1192,562.13,1196Z" transform="translate(0 0.63)"/><path class="cls-4" d="M594.4,1199.67a7.79,7.79,0,0,1-7.72,5.44c-4.61,0-8.65-3.36-8.65-9.19,0-5.39,3.9-9.07,8.22-9.07,5.29,0,8.26,3.64,8.26,9a8.46,8.46,0,0,1-.07,1.07H581.5a5.1,5.1,0,0,0,5.18,5.22,4.7,4.7,0,0,0,4.83-3.47Zm-3.39-5.46a4.34,4.34,0,0,0-4.72-4.4,4.62,4.62,0,0,0-4.68,4.4Z" transform="translate(0 0.63)"/><rect class="cls-4" x="30.11" y="1349.82" width="300.98" height="83.4" rx="41.7"/><path class="cls-3" d="M152.9,1376.48h4.22l6.57,11.29,6.58-11.29h4L165.34,1391v10.82h-3.51V1391Z" transform="translate(0 0.63)"/><path class="cls-3" d="M189.88,1396.92a7.78,7.78,0,0,1-7.72,5.43c-4.61,0-8.64-3.36-8.64-9.18,0-5.4,3.89-9.08,8.22-9.08,5.28,0,8.25,3.64,8.25,9a8.79,8.79,0,0,1-.07,1.08H177a5.11,5.11,0,0,0,5.18,5.22,4.7,4.7,0,0,0,4.83-3.47Zm-3.39-5.47a4.33,4.33,0,0,0-4.72-4.39,4.62,4.62,0,0,0-4.68,4.39Z" transform="translate(0 0.63)"/><path class="cls-3" d="M196.2,1396.28c.21,1.78,1.57,3.21,4,3.21,1.89,0,2.93-1.07,2.93-2.29,0-1.07-.79-1.89-2.22-2.21l-2.93-.64c-2.68-.58-4.29-2.4-4.29-4.83,0-2.93,2.76-5.43,6.11-5.43,4.72,0,6.19,3.07,6.54,4.61l-3,1.11a3.33,3.33,0,0,0-3.58-2.86,2.59,2.59,0,0,0-2.85,2.28c0,1,.64,1.79,2,2.08l2.79.61c3.11.67,4.75,2.57,4.75,5.11s-2,5.32-6.29,5.32c-4.71,0-6.72-3-7-5Z" transform="translate(0 0.63)"/><path class="cls-4" d="M602.74,1354.19a36.7,36.7,0,1,1,0,73.4H385.16a36.7,36.7,0,1,1,0-73.4H602.74m0-5H385.16a41.7,41.7,0,1,0,0,83.4H602.74a41.7,41.7,0,1,0,0-83.4Z" transform="translate(0 0.63)"/><path class="cls-4" d="M490.05,1401.81l-13.69-20.65v20.65h-3.5v-25.33h4.68l12.65,19.44v-19.44h3.5v25.33Z" transform="translate(0 0.63)"/><path class="cls-4" d="M516.23,1393.2c0,5.26-3.65,9.15-8.79,9.15s-8.79-3.89-8.79-9.15,3.64-9.11,8.79-9.11S516.23,1388,516.23,1393.2Zm-3.43,0c0-4-2.5-6.11-5.36-6.11s-5.36,2.14-5.36,6.11,2.5,6.15,5.36,6.15S512.8,1397.2,512.8,1393.2Z" transform="translate(0 0.63)"/><path class="cls-6" d="M31.15,1304.42v-13.91H34v13.82c0,3.22,1.76,5,4.71,5s4.67-1.82,4.67-5v-13.82h2.92v13.91c0,5-3.31,7.66-7.59,7.66S31.15,1309.4,31.15,1304.42Z" transform="translate(0 0.63)"/><path class="cls-6" d="M52.51,1307.64a2.07,2.07,0,0,1,2.08,2.08,2.07,2.07,0,1,1-2.08-2.08Z" transform="translate(0 0.63)"/><path class="cls-6" d="M70.45,1296.23a4.28,4.28,0,0,0-4.47-3.6c-2.38,0-4.08,1.54-4.08,3.51a3.07,3.07,0,0,0,2.71,3.07l3.16.68c3.51.78,5.48,3,5.48,5.93,0,3.28-2.8,6.26-7.3,6.26-5.09,0-7.5-3.28-7.89-6.29l2.8-.89a4.8,4.8,0,0,0,5.06,4.52c2.92,0,4.35-1.51,4.35-3.36,0-1.52-1-2.83-3.16-3.28l-3-.65c-3-.66-5.16-2.62-5.16-5.78s3.07-6.29,7-6.29c4.77,0,6.67,3,7.15,5.25Z" transform="translate(0 0.63)"/><path class="cls-6" d="M79.05,1307.64a2.07,2.07,0,0,1,2.08,2.08,2,2,0,0,1-2.08,2.06,2,2,0,0,1-2-2.06A2,2,0,0,1,79.05,1307.64Z" transform="translate(0 0.63)"/><path class="cls-6" d="M93.19,1301.06c0-7.06,5.25-11,10.49-11,4.82,0,8.22,2.63,9.29,6.71l-2.71,1a6.25,6.25,0,0,0-6.58-5c-3.84,0-7.51,2.81-7.51,8.32s3.67,8.34,7.51,8.34a6.72,6.72,0,0,0,6.73-5.07l2.59,1a9.22,9.22,0,0,1-9.32,6.79C98.23,1312.08,93.19,1308.11,93.19,1301.06Z" transform="translate(0 0.63)"/><path class="cls-6" d="M117.93,1289.86a2,2,0,1,1-2,2A2,2,0,0,1,117.93,1289.86Zm-1.37,21.77V1297.3h2.77v14.33Z" transform="translate(0 0.63)"/><path class="cls-6" d="M127.94,1297.3H131v2.53h-3.1v7.45c0,1.31.54,2,2,2a5.71,5.71,0,0,0,1.11-.12v2.38a6.15,6.15,0,0,1-1.91.27,3.72,3.72,0,0,1-4-4.08v-7.87H122.4v-2.53h.77a2,2,0,0,0,2.21-2.2v-2.32h2.56Z" transform="translate(0 0.63)"/><path class="cls-6" d="M135.85,1289.86a2,2,0,1,1-2,2A2,2,0,0,1,135.85,1289.86Zm-1.37,21.77V1297.3h2.77v14.33Z" transform="translate(0 0.63)"/><path class="cls-6" d="M140.61,1311.63v-2.44l7.86-9.36h-7.74v-2.53H152v2.44l-7.86,9.36h8v2.53Z" transform="translate(0 0.63)"/><path class="cls-6" d="M168,1307.55a6.49,6.49,0,0,1-6.43,4.53c-3.84,0-7.21-2.8-7.21-7.66,0-4.5,3.25-7.56,6.85-7.56,4.41,0,6.88,3,6.88,7.5a6.06,6.06,0,0,1-.06.89H157.27a4.25,4.25,0,0,0,4.32,4.35,3.91,3.91,0,0,0,4-2.88Zm-2.83-4.56a3.61,3.61,0,0,0-3.93-3.66,3.86,3.86,0,0,0-3.9,3.66Z" transform="translate(0 0.63)"/><path class="cls-6" d="M174.74,1311.63h-2.8V1297.3h2.74v2.06a4.89,4.89,0,0,1,4.4-2.47c3.43,0,5.13,2.47,5.13,5.66v9.08h-2.8V1303c0-2-.84-3.6-3.34-3.6-2.2,0-3.33,1.75-3.33,3.93Z" transform="translate(0 0.63)"/><path class="cls-6" d="M190.1,1307a3.05,3.05,0,0,0,3.33,2.68c1.58,0,2.45-.89,2.45-1.9s-.66-1.58-1.85-1.85l-2.44-.54a4.07,4.07,0,0,1-3.58-4c0-2.44,2.3-4.52,5.1-4.52,3.93,0,5.15,2.56,5.45,3.84l-2.48.92a2.77,2.77,0,0,0-3-2.38,2.17,2.17,0,0,0-2.39,1.91c0,.86.54,1.48,1.64,1.72l2.33.51c2.59.56,4,2.14,4,4.26s-1.7,4.44-5.25,4.44c-3.93,0-5.6-2.54-5.83-4.17Z" transform="translate(0 0.63)"/><path class="cls-6" d="M205.29,1311.63h-2.8v-21.57h2.8V1299a5.06,5.06,0,0,1,4.35-2.08c3.42,0,5.12,2.47,5.12,5.66v9.08H212V1303c0-2-.83-3.6-3.34-3.6-2.14,0-3.27,1.66-3.33,3.78Z" transform="translate(0 0.63)"/><path class="cls-6" d="M220.62,1289.86a2,2,0,1,1-2,2A2,2,0,0,1,220.62,1289.86Zm-1.37,21.77V1297.3H222v14.33Z" transform="translate(0 0.63)"/><path class="cls-6" d="M226.72,1317.29v-20h2.71v2.24a5.27,5.27,0,0,1,4.79-2.56c4.29,0,6.59,3.3,6.59,7.47s-2.48,7.57-6.68,7.57a5.32,5.32,0,0,1-4.64-2.33v7.6Zm7-17.84c-2.56,0-4.26,2.14-4.26,5s1.7,5.06,4.26,5.06,4.23-2.11,4.23-5.06S236.34,1299.45,233.72,1299.45Z" transform="translate(0 0.63)"/><path class="cls-6" d="M259.42,1303h-3.16v8.64h-2.95v-21.12h7.95a6.12,6.12,0,0,1,6.47,6.29,5.91,5.91,0,0,1-5.13,6l5,8.85h-3.4Zm1.31-2.62c2.38,0,4-1.4,4-3.57s-1.61-3.67-4-3.67h-4.47v7.24Z" transform="translate(0 0.63)"/><path class="cls-6" d="M283.83,1307.55a6.49,6.49,0,0,1-6.43,4.53c-3.84,0-7.21-2.8-7.21-7.66,0-4.5,3.25-7.56,6.85-7.56,4.41,0,6.88,3,6.88,7.5a6.06,6.06,0,0,1-.06.89H273.08a4.25,4.25,0,0,0,4.32,4.35,3.91,3.91,0,0,0,4-2.88ZM281,1303a3.61,3.61,0,0,0-3.93-3.66,3.86,3.86,0,0,0-3.9,3.66Z" transform="translate(0 0.63)"/><path class="cls-6" d="M298.05,1317.29v-7.69a4.78,4.78,0,0,1-4.47,2.42c-4.11,0-6.79-3.43-6.79-7.6s2.54-7.47,6.74-7.47a4.81,4.81,0,0,1,4.58,2.56v-2.21h2.71v20Zm-4.2-7.75c2.53,0,4.23-2.17,4.23-5.12s-1.7-5-4.23-5-4.2,2-4.2,5S291.29,1309.54,293.85,1309.54Z" transform="translate(0 0.63)"/><path class="cls-6" d="M310.63,1312.08c-3.33,0-5.36-2.51-5.36-5.75v-9h2.8v8.61c0,2,.9,3.69,3.25,3.69s3.4-1.49,3.4-3.66v-8.64h2.8V1309a24.59,24.59,0,0,0,.14,2.65H315a12.61,12.61,0,0,1-.12-1.73A4.67,4.67,0,0,1,310.63,1312.08Z" transform="translate(0 0.63)"/><path class="cls-6" d="M323.6,1289.86a2,2,0,1,1-2,2A2,2,0,0,1,323.6,1289.86Zm-1.37,21.77V1297.3H325v14.33Z" transform="translate(0 0.63)"/><path class="cls-6" d="M337.65,1300.13a8.77,8.77,0,0,0-1.22-.09c-2.36,0-3.94,1.25-3.94,4.41v7.18h-2.8V1297.3h2.74v2.51a4.49,4.49,0,0,1,4.29-2.75,5.31,5.31,0,0,1,.93.09Z" transform="translate(0 0.63)"/><path class="cls-6" d="M353.36,1307.55a6.49,6.49,0,0,1-6.43,4.53c-3.84,0-7.21-2.8-7.21-7.66,0-4.5,3.25-7.56,6.85-7.56,4.41,0,6.88,3,6.88,7.5a6.06,6.06,0,0,1-.06.89H342.61a4.25,4.25,0,0,0,4.32,4.35,3.9,3.9,0,0,0,4-2.88Zm-2.83-4.56a3.61,3.61,0,0,0-3.93-3.66,3.86,3.86,0,0,0-3.9,3.66Z" transform="translate(0 0.63)"/><path class="cls-6" d="M357.28,1311.63V1297.3H360v1.91a4.93,4.93,0,0,1,4.35-2.32,4.47,4.47,0,0,1,4.29,2.71,5.13,5.13,0,0,1,4.79-2.71c2.51,0,4.95,1.69,4.95,5.45v9.29h-2.77v-9c0-1.87-.93-3.27-3-3.27a3.34,3.34,0,0,0-3.31,3.6v8.67h-2.8v-9c0-1.84-.89-3.27-3-3.27a3.32,3.32,0,0,0-3.34,3.63v8.64Z" transform="translate(0 0.63)"/><path class="cls-6" d="M395.56,1307.55a6.49,6.49,0,0,1-6.43,4.53c-3.84,0-7.21-2.8-7.21-7.66,0-4.5,3.25-7.56,6.85-7.56,4.41,0,6.88,3,6.88,7.5a6.06,6.06,0,0,1-.06.89H384.81a4.25,4.25,0,0,0,4.32,4.35,3.91,3.91,0,0,0,4-2.88Zm-2.83-4.56a3.61,3.61,0,0,0-3.93-3.66,3.86,3.86,0,0,0-3.9,3.66Z" transform="translate(0 0.63)"/><path class="cls-6" d="M402.28,1311.63h-2.8V1297.3h2.74v2.06a4.9,4.9,0,0,1,4.41-2.47c3.42,0,5.12,2.47,5.12,5.66v9.08H409V1303c0-2-.83-3.6-3.34-3.6-2.2,0-3.33,1.75-3.33,3.93Z" transform="translate(0 0.63)"/><path class="cls-6" d="M420.09,1297.3h3.1v2.53h-3.1v7.45c0,1.31.54,2,2,2a5.69,5.69,0,0,0,1.1-.12v2.38a6.15,6.15,0,0,1-1.91.27,3.72,3.72,0,0,1-4-4.08v-7.87h-2.74v-2.53h.77a2,2,0,0,0,2.21-2.2v-2.32h2.56Z" transform="translate(0 0.63)"/><path class="cls-6" d="M430.82,1305.58c0-.35,0-.65,0-1a5.17,5.17,0,0,1,2.47-4.65l1.31-.89a3.51,3.51,0,0,0,1.58-2.92,3.28,3.28,0,0,0-3.54-3.39,3.57,3.57,0,0,0-3.73,3.81,5.07,5.07,0,0,0,.21,1.46l-2.89-.36a5.18,5.18,0,0,1-.18-1.43c0-2.74,2-6.11,6.59-6.11,4.17,0,6.52,3,6.52,6a6.09,6.09,0,0,1-3,5.18l-1.37.93a3.31,3.31,0,0,0-1.31,2.86,4.5,4.5,0,0,0,0,.56Zm1.28,2.3a2,2,0,1,1,0,3.9,2,2,0,0,1,0-3.9Z" transform="translate(0 0.63)"/><path class="cls-6" d="M39,1484.76v18.41H36.12v-18.41H29.06v-2.7h17v2.7Z" transform="translate(0 0.63)"/><path class="cls-6" d="M51.93,1503.17h-2.8v-21.56h2.8v8.9a5.05,5.05,0,0,1,4.34-2.08c3.43,0,5.13,2.47,5.13,5.66v9.08H58.6v-8.61c0-2-.84-3.6-3.34-3.6-2.14,0-3.27,1.67-3.33,3.78Z" transform="translate(0 0.63)"/><path class="cls-6" d="M78.59,1499.09a6.49,6.49,0,0,1-6.43,4.53c-3.84,0-7.21-2.8-7.21-7.66,0-4.49,3.25-7.56,6.85-7.56,4.41,0,6.88,3,6.88,7.5a6.34,6.34,0,0,1-.06.9H67.84a4.26,4.26,0,0,0,4.32,4.35,3.9,3.9,0,0,0,4-2.89Zm-2.83-4.56a3.6,3.6,0,0,0-3.93-3.66,3.86,3.86,0,0,0-3.9,3.66Z" transform="translate(0 0.63)"/><path class="cls-6" d="M89.85,1492.6c0-7.06,5.24-11,10.48-11,4.83,0,8.22,2.62,9.29,6.7l-2.71,1c-.8-3.19-3.12-5-6.58-5-3.84,0-7.5,2.8-7.5,8.31s3.66,8.34,7.5,8.34a6.71,6.71,0,0,0,6.73-5.06l2.59.95a9.21,9.21,0,0,1-9.32,6.79C94.88,1503.62,89.85,1499.66,89.85,1492.6Z" transform="translate(0 0.63)"/><path class="cls-6" d="M127.2,1496c0,4.38-3,7.63-7.33,7.63s-7.32-3.25-7.32-7.63a7.33,7.33,0,1,1,14.65,0Zm-2.86,0c0-3.3-2.08-5.09-4.47-5.09s-4.46,1.79-4.46,5.09,2.08,5.13,4.46,5.13S124.34,1499.33,124.34,1496Z" transform="translate(0 0.63)"/><path class="cls-6" d="M130.93,1503.17v-14.32h2.69v1.9a4.93,4.93,0,0,1,4.34-2.32,4.46,4.46,0,0,1,4.29,2.71,5.14,5.14,0,0,1,4.8-2.71c2.5,0,4.94,1.7,4.94,5.45v9.29h-2.77v-9c0-1.88-.92-3.28-3-3.28a3.34,3.34,0,0,0-3.3,3.6v8.67h-2.8v-9c0-1.85-.9-3.28-3-3.28a3.32,3.32,0,0,0-3.34,3.63v8.64Z" transform="translate(0 0.63)"/><path class="cls-6" d="M156.56,1508.83v-20h2.71v2.23a5.27,5.27,0,0,1,4.79-2.56c4.29,0,6.59,3.3,6.59,7.47s-2.48,7.57-6.68,7.57a5.32,5.32,0,0,1-4.64-2.32v7.59Zm7-17.84c-2.56,0-4.26,2.15-4.26,5s1.7,5.07,4.26,5.07,4.23-2.12,4.23-5.07S166.18,1491,163.56,1491Z" transform="translate(0 0.63)"/><path class="cls-6" d="M177.88,1495l3.87-.57c.86-.11,1.1-.56,1.1-1.07,0-1.4-.92-2.56-3.1-2.56a3,3,0,0,0-3.24,2.89l-2.68-.62c.29-2.74,2.77-4.65,5.86-4.65,4.29,0,6,2.44,6,5.24v7.18a13.37,13.37,0,0,0,.18,2.35h-2.74a10.37,10.37,0,0,1-.15-1.93,5.24,5.24,0,0,1-4.62,2.38,4.46,4.46,0,0,1-4.79-4.29C173.53,1496.77,175.4,1495.34,177.88,1495Zm5,2.06v-.66l-4.38.66a2.14,2.14,0,0,0-2.08,2.14,2.17,2.17,0,0,0,2.32,2.09C181,1501.27,182.85,1500.16,182.85,1497Z" transform="translate(0 0.63)"/><path class="cls-6" d="M192.92,1503.17h-2.8v-14.32h2.74v2.05a4.91,4.91,0,0,1,4.41-2.47c3.43,0,5.12,2.47,5.12,5.66v9.08h-2.8v-8.61c0-2-.83-3.6-3.33-3.6-2.21,0-3.34,1.76-3.34,3.93Z" transform="translate(0 0.63)"/><path class="cls-6" d="M207.06,1509.16l3.57-7.57-6.16-12.74h3.21l4.47,9.88,4.29-9.88h3l-9.33,20.31Z" transform="translate(0 0.63)"/><path class="cls-3" d="M180.43,346.48c0-14.62,10.95-23.42,22.59-23.42,11.4,0,18.17,6.71,20.19,14.56l-7.15,2.4c-1.33-5.44-5.51-9.81-13-9.81s-14.81,5.38-14.81,16.27c0,10.51,7.22,16.08,14.88,16.08a13.39,13.39,0,0,0,13.35-9.88l7,2.28c-2,7.6-8.86,14.87-20.31,14.87C191,369.83,180.43,361.1,180.43,346.48Z" transform="translate(0 0.63)"/><path class="cls-3" d="M249.83,323.06c11.77,0,22.85,8.67,22.85,23.36s-11.08,23.41-22.85,23.41S227,361.16,227,346.42,238.06,323.06,249.83,323.06Zm0,39.56c7.59,0,15.06-5.38,15.06-16.2s-7.47-16.21-15.06-16.21-15,5.38-15,16.21S242.3,362.62,249.83,362.62Z" transform="translate(0 0.63)"/><path class="cls-3" d="M321.41,368.89v-33l-14,33h-6.59L287,336v32.92h-7.4V324H289.7l14.55,34.24L318.62,324h10.32v44.88Z" transform="translate(0 0.63)"/><path class="cls-3" d="M346.08,351.35v17.54h-7.59V324h16.64c8.61,0,14.31,5.82,14.31,13.67s-5.7,13.67-14.31,13.67Zm7.92-6.71c4.81,0,7.72-2.65,7.72-6.9s-2.91-7-7.72-7h-7.92v13.92Z" transform="translate(0 0.63)"/><path class="cls-3" d="M398.05,357.62h-19l-4.17,11.27h-8L384.32,324h8.8l17.46,44.88h-8.29Zm-16.33-7h13.67l-6.83-18.35Z" transform="translate(0 0.63)"/><path class="cls-3" d="M445,368.89l-22.15-34v34h-7.59V324h9.68l20.38,31.84V324h7.59v44.88Z" transform="translate(0 0.63)"/><path class="cls-3" d="M457.48,324h9l10.76,18.8L488.06,324h8.54L480.78,349.9v19h-7.6v-19Z" transform="translate(0 0.63)"/><path class="cls-3" d="M252.24,437.73V392.85h7.6v37.66h20.57v7.22Z" transform="translate(0 0.63)"/><path class="cls-3" d="M304.56,391.91c11.77,0,22.85,8.67,22.85,23.35s-11.08,23.42-22.85,23.42-22.79-8.67-22.79-23.42S292.79,391.91,304.56,391.91Zm0,39.55c7.6,0,15.06-5.38,15.06-16.2s-7.46-16.2-15.06-16.2-15,5.38-15,16.2S297,431.46,304.56,431.46Z" transform="translate(0 0.63)"/><path class="cls-3" d="M368.14,437.73l-.57-5.7c-2,3.29-6.58,6.65-13.74,6.65-11.71,0-22.09-8.61-22.09-23.42s10.95-23.35,22.6-23.35c10.89,0,17.85,6.26,20.25,13.67l-7.15,2.72c-1.52-5.07-5.95-9.37-13.1-9.37s-14.87,5.19-14.87,16.33c0,10.95,7.08,16.46,14.81,16.46,9.05,0,12.47-6.21,12.84-10.07H352.31V415h22v22.72Z" transform="translate(0 0.63)"/><path class="cls-3" d="M402.63,391.91c11.77,0,22.85,8.67,22.85,23.35s-11.08,23.42-22.85,23.42-22.78-8.67-22.78-23.42S390.86,391.91,402.63,391.91Zm0,39.55c7.6,0,15.07-5.38,15.07-16.2s-7.47-16.2-15.07-16.2-15,5.38-15,16.2S395.1,431.46,402.63,431.46Z" transform="translate(0 0.63)"/><circle class="cls-4" cx="337.5" cy="568.12" r="49.84"/><rect class="cls-3" x="335.5" y="536.94" width="4" height="62.35"/><rect class="cls-3" x="306.33" y="566.12" width="62.35" height="4"/><polygon class="cls-4" points="591.4 116.91 580.55 102.61 582.94 100.79 591.4 111.94 610.66 86.53 613.05 88.34 591.4 116.91"/></g><path class="cls-4" d="M632.5,1475.63H42.5A42.55,42.55,0,0,1,0,1433.13V41.87A42.55,42.55,0,0,1,42.5-.63h590A42.55,42.55,0,0,1,675,41.87V1433.13A42.55,42.55,0,0,1,632.5,1475.63ZM42.5,4.37A37.54,37.54,0,0,0,5,41.87V1433.13a37.54,37.54,0,0,0,37.5,37.5h590a37.54,37.54,0,0,0,37.5-37.5V41.87a37.54,37.54,0,0,0-37.5-37.5Z" transform="translate(0 0.63)"/></svg>