<?xml version="1.0" encoding="UTF-8"?><svg id="Layer_1" xmlns="http://www.w3.org/2000/svg" viewBox="0 0 29.66 30"><defs><style>.cls-1{fill:#fff;stroke-width:0px;}</style></defs><path class="cls-1" d="m14.83,18.59c-.48,0-.96-.12-1.4-.35h0S1.67,11.89,1.67,11.89c-.95-.51-1.55-1.51-1.55-2.59s.59-2.08,1.55-2.59L13.43.35c.88-.47,1.92-.47,2.8,0l11.76,6.35c.95.51,1.55,1.51,1.55,2.59s-.59,2.08-1.55,2.59l-11.76,6.35c-.44.24-.92.35-1.4.35Zm-.24-2.5c.15.08.33.08.48,0l11.76-6.35c.23-.12.26-.33.26-.44s-.03-.32-.26-.44L15.07,2.5c-.15-.08-.33-.08-.48,0L2.83,8.85c-.23.12-.26.33-.26.44s.03.32.26.44l11.76,6.35Z"/><path class="cls-1" d="m14.83,24.26c-.56,0-1.11-.13-1.61-.4L1.57,17.57c-.98-.53-1.57-1.48-1.57-2.54v-.14c0-.67.55-1.22,1.22-1.22s1.22.55,1.22,1.22v.14c0,.15.1.29.29.39l11.65,6.29c.27.14.62.14.89,0l11.65-6.29c.19-.1.29-.24.29-.39v-.14c0-.67.55-1.22,1.22-1.22s1.22.55,1.22,1.22v.14c0,1.06-.59,2.01-1.57,2.54l-11.65,6.29c-.5.27-1.05.4-1.6.4Z"/><path class="cls-1" d="m14.83,30c-.56,0-1.11-.13-1.61-.4L1.57,23.31c-.99-.53-1.57-1.48-1.57-2.54v-.14c0-.67.55-1.22,1.22-1.22s1.22.55,1.22,1.22v.14c0,.15.11.29.29.39l11.65,6.29c.27.14.62.14.89,0l11.65-6.29c.19-.1.29-.24.29-.39v-.14c0-.67.55-1.22,1.22-1.22s1.22.55,1.22,1.22v.14c0,1.06-.59,2.01-1.57,2.54l-11.65,6.29c-.5.27-1.05.4-1.6.4Z"/></svg>