<?xml version="1.0" encoding="UTF-8"?><svg id="Layer_1" xmlns="http://www.w3.org/2000/svg" viewBox="0 0 29.75 30"><defs><style>.cls-1{fill:gray;stroke-width:0px;}</style></defs><path class="cls-1" d="m16.72,6.88H7.04c-.69,0-1.24.56-1.24,1.24s.56,1.24,1.24,1.24h9.67c.69,0,1.24-.56,1.24-1.24s-.56-1.24-1.24-1.24Z"/><path class="cls-1" d="m16.72,13.76H7.04c-.69,0-1.24.56-1.24,1.24s.56,1.24,1.24,1.24h9.67c.69,0,1.24-.56,1.24-1.24s-.56-1.24-1.24-1.24Z"/><path class="cls-1" d="m10.94,20.64h-3.9c-.69,0-1.24.56-1.24,1.24s.56,1.24,1.24,1.24h3.9c.69,0,1.24-.56,1.24-1.24s-.56-1.24-1.24-1.24Z"/><path class="cls-1" d="m24.71,11.89h-.95v-7.13c0-2.62-2.14-4.76-4.76-4.76H4.76C2.14,0,0,2.14,0,4.76v20.48c0,2.62,2.14,4.76,4.76,4.76h14.24c.13,0,.25-.03.38-.04.06.01.12.04.19.04h5.14c2.78,0,5.04-2.26,5.04-5.05v-8.02c0-2.78-2.26-5.04-5.04-5.04ZM2.48,25.24V4.76c0-1.26,1.02-2.28,2.28-2.28h14.24c1.26,0,2.28,1.02,2.28,2.28v20.48c0,1.26-1.02,2.28-2.28,2.28H4.76c-1.26,0-2.28-1.02-2.28-2.28Zm24.79-.28c0,1.41-1.15,2.56-2.56,2.56h-1.55c.37-.68.61-1.45.61-2.28v-10.86h.95c1.41,0,2.56,1.15,2.56,2.56v8.02Z"/></svg>