<?xml version="1.0" encoding="utf-8"?>
<!-- Generator: Adobe Illustrator 27.8.1, SVG Export Plug-In . SVG Version: 6.00 Build 0)  -->
<svg version="1.1" id="Layer_1" xmlns="http://www.w3.org/2000/svg" xmlns:xlink="http://www.w3.org/1999/xlink" x="0px" y="0px"
	 viewBox="0 0 600 500" style="enable-background:new 0 0 600 500;" xml:space="preserve">
<style type="text/css">
	.st0{fill:#1F1F1F;}
</style>
<path class="st0" d="M535.2,236.9H426.7l14.7-21.8c2.1-3.1,1.3-7.3-1.8-9.4c-3.1-2.1-7.3-1.3-9.4,1.8l-68.8,102.4
	c-0.2,0.3-0.4,0.7-0.6,1.1l-45.4,103c-1.2,2.8-4,4.6-7.1,4.6c-7.3,0-14.1-3.3-18.7-9c-4.5-5.7-6.2-13.1-4.5-20.3l21.2-89.7
	c0.5-2,0-4.1-1.3-5.8c-1.3-1.6-3.2-2.6-5.3-2.6H247c3.3-4.9,5.3-10.9,5.3-17.2c0-7-2.4-13.5-6.3-18.6c12.5-3.9,21.6-15.6,21.6-29.4
	c0-7.5-2.7-14.3-7.1-19.7c11.1-4.7,18.9-15.6,18.9-28.4c0-7.4-2.6-14.2-7-19.5c11.3-4.6,19.2-15.6,19.2-28.5c0-6.4-2-12.3-5.3-17.2
	h96.5c-18.9,11.3-33.8,29-41.3,50.8l-11.1,32.2c-1.2,3.5,0.7,7.4,4.2,8.6c0.7,0.3,1.5,0.4,2.2,0.4c2.8,0,5.4-1.8,6.4-4.6l11.1-32.2
	c11.4-33,42.6-55.3,77.6-55.3h13.2H515c3.8,0,6.8-3,6.8-6.8s-3-6.8-6.8-6.8h-66.7c-42.5-46.7-102.8-73.4-165.9-73.4
	C158.7,25.7,58,126.3,58,250s100.6,224.3,224.3,224.3c123.5,0,224.1-100.4,224.3-223.9h28.5c3.8,0,6.8-3,6.8-6.8
	C542,239.9,538.9,236.9,535.2,236.9z M156.8,256.9h12.5h52.4c9.5,0,17.2,7.7,17.2,17.2s-7.7,17.2-17.2,17.2h-64.8
	c-9.5,0-17.2-7.7-17.2-17.2S147.3,256.9,156.8,256.9z M236.9,243.3h-15.3h-52.4c-9.5,0-17.2-7.7-17.2-17.2s7.7-17.2,17.2-17.2h20.1
	h47.6c9.5,0,17.2,7.7,17.2,17.2C254.1,235.6,246.4,243.3,236.9,243.3z M248.7,195.2h-11.8h-47.6c-9.5,0-17.2-7.7-17.2-17.2
	s7.7-17.2,17.2-17.2h26h33.3c9.5,0,17.2,7.7,17.2,17.2S258.2,195.2,248.7,195.2z M278.1,129.9c0,9.5-7.7,17.2-17.2,17.2h-12.2h-33.3
	c-9.5,0-17.2-7.7-17.2-17.2s7.7-17.2,17.2-17.2h15.8H261C270.4,112.7,278.1,120.4,278.1,129.9z M282.3,460.7
	c-116.2,0-210.7-94.5-210.7-210.7S166.1,39.3,282.3,39.3c55.1,0,107.9,21.6,147.1,59.8H260.9h-29.8h-15.8c-17,0-30.8,13.8-30.8,30.8
	c0,6.4,2,12.3,5.3,17.2h-0.5c-17,0-30.8,13.8-30.8,30.8c0,6.6,2.1,12.7,5.6,17.7c-14.6,2.4-25.7,15.1-25.7,30.4
	c0,7.4,2.6,14.1,6.9,19.5c-11.4,4.5-19.4,15.6-19.4,28.6c0,17,13.8,30.8,30.8,30.8h34.4l0,0h100.1L272,386.2
	c-2.6,11.2-0.1,22.8,7.1,31.8c7.1,9,17.8,14.2,29.3,14.2c8.5,0,16.1-5,19.5-12.7l45-102.6l44.7-66.4h75.5
	C492.8,366.4,398.4,460.7,282.3,460.7z"/>
</svg>
