<?xml version="1.0" encoding="UTF-8"?><svg id="Layer_1" xmlns="http://www.w3.org/2000/svg" viewBox="0 0 330.61 385.79"><defs><style>.cls-1{fill:#1f1f1f;stroke-width:0px;}</style></defs><path class="cls-1" d="M75.64,71.14V0H0v136.8c4.17-8.8,9.38-17.1,15.58-24.79,15.5-19.22,36.09-33.18,60.06-40.87Z"/><path class="cls-1" d="M75.64,308.23v-115.43c0-9.08,2.37-16.44,6.15-22.27,1.77-2.74,3.86-5.13,6.15-7.21,5.65-5.1,12.58-8.25,19.31-9.71,2.98-.64,6.13-1,9.35-1,13.29,0,27.7,6.12,35.64,23.6l.85,1.86,34.75-76.46c-19.79-15.94-44.44-24.73-70.71-24.73-8.5,0-17.17.92-25.9,2.81-1.11.24-2.2.5-3.3.77-2.08.51-4.13,1.07-6.15,1.67-2.08.62-4.13,1.3-6.15,2.02C29.79,100.57,0,142.46,0,192.79v193h75.64v-77.56Z"/><path class="cls-1" d="M232.29,246.04c-7.22,15.89-17.24,29.93-29.47,41.45l44.68,98.3h83.08l-80.91-178-17.38,38.25Z"/><path class="cls-1" d="M242.91,192.93l3.38-7.43,3.38-7.43L330.61,0h-83.08l-44.71,98.37-2.72,5.99-2.68,5.91-37.58,82.67-3.38,7.43-3.38,7.43-.85,1.86c-7.95,17.49-22.38,23.59-35.67,23.59-3.21,0-6.35-.36-9.32-.99-6.73-1.46-13.66-4.61-19.31-9.71v82.87c1.09.27,2.19.53,3.3.77,8.73,1.89,17.39,2.81,25.89,2.81,26.28,0,50.92-8.79,70.72-24.73,1.66-1.34,3.28-2.73,4.86-4.16,1.61-1.45,3.18-2.94,4.71-4.49,9.57-9.7,17.62-21.32,23.67-34.64l21.83-48.02Z"/></svg>