<svg id="Layer_1" data-name="Layer 1" xmlns="http://www.w3.org/2000/svg" viewBox="0 0 1000 303.53"><defs><style>.cls-1{fill:#1f1f1f;}</style></defs><path class="cls-1" d="M87.92,585.93H49.15l-.5,2.61c-6.24,32.82-15.81,62.5-28.48,88.29C-2,651-27.22,634.53-54,628.31V585.93H-92.14v40.7c-40.23,6.7-71,42.32-71,85.13V715h.06c1.5,41.36,31.76,75.36,71,81.9v39.88H-54V795.19c26.74-6.22,52-22.67,74.13-48.52,12.55,25.56,22.07,55,28.32,87.47l.5,2.61H87.77L87.1,833C79,787.17,64.34,745.31,44.79,711.75c19.68-33.77,34.35-75.92,42.47-122ZM-92.14,757.58A47.46,47.46,0,0,1-125,711.74a47.46,47.46,0,0,1,32.85-45.82ZM-54,668.06c18.89,6.85,36.94,21.61,53.2,43.69C-17,733.84-35.07,748.6-54,755.44Z" transform="translate(163.17 -585.93)"/><path class="cls-1" d="M171.28,685.79c-36.2,0-69.75,30-69.75,75.34C101.53,809.7,136,838,174.82,838c34.43,0,57.09-20.31,64.74-45.32l-28.84-9.13c-4.71,14.13-15.3,25-35.9,25-21.2,0-38.27-15.6-39.15-37.38H240.45c.29-.59.88-5.3.88-10.89C241.33,714.93,215.43,685.79,171.28,685.79Zm-34.73,60.33a34.41,34.41,0,0,1,35-31.78c23.54,0,34.73,15,35.32,31.78Z" transform="translate(163.17 -585.93)"/><path class="cls-1" d="M328.39,685.79c-36.2,0-69.75,30-69.75,75.34,0,48.57,34.43,76.82,73.28,76.82,34.44,0,57.1-20.31,64.75-45.32l-28.84-9.13c-4.71,14.13-15.31,25-35.91,25-21.19,0-38.26-15.6-39.14-37.38H397.55c.3-.59.89-5.3.89-10.89C398.44,714.93,372.54,685.79,328.39,685.79Zm-34.73,60.33a34.41,34.41,0,0,1,35-31.78c23.55,0,34.73,15,35.32,31.78Z" transform="translate(163.17 -585.93)"/><path class="cls-1" d="M503.54,687c-22.07,0-38.56,10.3-45.62,22.66V690.2H425V889.46H458.8V817.35c7.36,10.89,23,19.72,43.56,19.72,41.21,0,67.4-32.38,67.4-75.35C569.76,719.34,545.92,687,503.54,687Zm-6.48,119.79c-22.36,0-38.55-17.66-38.55-45,0-26.78,16.19-44.44,38.55-44.44,23,0,38.56,17.66,38.56,44.44C535.62,789.1,519.73,806.76,497.06,806.76Z" transform="translate(163.17 -585.93)"/><path class="cls-1" d="M656.38,685.79c-36.2,0-69.75,30-69.75,75.34,0,48.57,34.43,76.82,73.28,76.82,34.44,0,57.1-20.31,64.75-45.32l-28.84-9.13c-4.71,14.13-15.31,25-35.91,25-21.19,0-38.26-15.6-39.14-37.38H725.54c.3-.59.89-5.3.89-10.89C726.43,714.93,700.53,685.79,656.38,685.79Zm-34.73,60.33a34.41,34.41,0,0,1,35-31.78c23.55,0,34.73,15,35.32,31.78Z" transform="translate(163.17 -585.93)"/><path class="cls-1" d="M827.7,688.44c-18.84,0-34.73,9.12-41.5,24.72v-23H752.94V833.54h34.14V765.25c0-26.78,12.07-42.08,38.56-42.08a74.44,74.44,0,0,1,11.19.88V689.32A49.52,49.52,0,0,0,827.7,688.44Z" transform="translate(163.17 -585.93)"/></svg>