<?xml version="1.0" encoding="UTF-8"?><svg id="Layer_1" xmlns="http://www.w3.org/2000/svg" viewBox="0 0 34.69 30"><defs><style>.cls-1{fill:#fff;stroke-width:0px;}</style></defs><path class="cls-1" d="m23.8,11.42c-3.15,0-5.71-2.56-5.71-5.71S20.65,0,23.8,0s5.71,2.56,5.71,5.71-2.56,5.71-5.71,5.71Zm0-8.97c-1.8,0-3.26,1.46-3.26,3.26s1.46,3.26,3.26,3.26,3.26-1.46,3.26-3.26-1.46-3.26-3.26-3.26Z"/><path class="cls-1" d="m10.88,11.42c-3.15,0-5.71-2.56-5.71-5.71S7.74,0,10.88,0s5.71,2.56,5.71,5.71-2.56,5.71-5.71,5.71Zm0-8.97c-1.8,0-3.26,1.46-3.26,3.26s1.46,3.26,3.26,3.26,3.26-1.46,3.26-3.26-1.46-3.26-3.26-3.26Z"/><path class="cls-1" d="m33.46,30h-15.3c-.68,0-1.22-.55-1.22-1.22s.55-1.22,1.22-1.22h14.04c-.41-6.67-4.15-11.91-8.68-11.91-4.81,0-8.72,5.89-8.72,13.13,0,.68-.55,1.22-1.22,1.22H1.22c-.68,0-1.22-.55-1.22-1.22,0-8.59,5.01-15.58,11.16-15.58.8,0,1.6.12,2.38.35.65.19,1.02.88.82,1.52-.19.65-.88,1.02-1.52.82-.55-.16-1.11-.25-1.68-.25-4.53,0-8.27,5.24-8.68,11.91h9.91c.45-8.02,5.27-14.36,11.13-14.36,6.16,0,11.16,6.99,11.16,15.58,0,.68-.55,1.22-1.22,1.22Z"/></svg>